<?xml version="1.0" encoding="UTF-8"?>
<svg version="1.1" xmlns="http://www.w3.org/2000/svg" width="311" height="98">
<path d="M0 0 C102.63 0 205.26 0 311 0 C311 32.34 311 64.68 311 98 C208.37 98 105.74 98 0 98 C0 65.66 0 33.32 0 0 Z " fill="#010102" transform="translate(0,0)"/>
<path d="M0 0 C33.99 0 67.98 0 103 0 C103 25.08 103 50.16 103 76 C69.01 76 35.02 76 0 76 C0 50.92 0 25.84 0 0 Z " fill="#060407" transform="translate(10,12)"/>
<path d="M0 0 C33.99 0 67.98 0 103 0 C103 25.08 103 50.16 103 76 C69.01 76 35.02 76 0 76 C0 50.92 0 25.84 0 0 Z M9 9 C9 28.14 9 47.28 9 67 C37.05 67 65.1 67 94 67 C94 47.86 94 28.72 94 9 C65.95 9 37.9 9 9 9 Z " fill="#F5F6F6" transform="translate(10,12)"/>
<path d="M0 0 C1.12792969 -0.01417969 2.25585938 -0.02835938 3.41796875 -0.04296875 C6.9305188 0.19551278 9.59270288 0.77153697 12.8125 2.1875 C14.6875 5.3125 14.6875 5.3125 15.8125 8.1875 C16.8025 5.5475 17.7925 2.9075 18.8125 0.1875 C24.4225 0.1875 30.0325 0.1875 35.8125 0.1875 C36.8125 4.1875 36.8125 4.1875 35.8125 6.375 C33.01030067 8.91449315 30.5030023 8.90897152 26.8125 9.1875 C26.565 9.97125 26.3175 10.755 26.0625 11.5625 C24.47318507 16.17151329 22.65042827 20.67297716 20.8125 25.1875 C17.8425 25.1875 14.8725 25.1875 11.8125 25.1875 C11.8125 22.2175 11.8125 19.2475 11.8125 16.1875 C10.8225 16.5175 9.8325 16.8475 8.8125 17.1875 C8.8125 18.1775 8.8125 19.1675 8.8125 20.1875 C2.21375477 25.21511541 -4.13877124 24.58937827 -12.1875 24.1875 C-14.3586383 20.40497 -14.43958516 17.95944082 -13.875 13.7109375 C-11.67336697 5.62994354 -8.36121492 0.0472385 0 0 Z " fill="#450102" transform="translate(265.1875,38.8125)"/>
<path d="M0 0 C2.97 0 5.94 0 9 0 C8.34 3.63 7.68 7.26 7 11 C10.3 11 13.6 11 17 11 C17.13277344 10.28972656 17.26554687 9.57945313 17.40234375 8.84765625 C17.57894531 7.92855469 17.75554687 7.00945313 17.9375 6.0625 C18.19853516 4.68771484 18.19853516 4.68771484 18.46484375 3.28515625 C19 1 19 1 20 0 C23.00003445 -0.14177857 25.99757235 -0.04228771 29 0 C26.92028538 7.09436264 24.66940941 14.11823801 22.3125 21.125 C21.83200195 22.55972656 21.83200195 22.55972656 21.34179688 24.0234375 C20.56259091 26.34942545 19.78149639 28.6747806 19 31 C16.03 31 13.06 31 10 31 C11.875 22.375 11.875 22.375 13 19 C8.05 19.495 8.05 19.495 3 20 C1.68 23.63 0.36 27.26 -1 31 C-3.97 31 -6.94 31 -10 31 C-9.32018784 25.3473153 -7.47559461 20.2637736 -5.5625 14.9375 C-5.09360352 13.61008789 -5.09360352 13.61008789 -4.61523438 12.25585938 C-3.15390749 8.13757451 -1.67102879 4.03901934 0 0 Z " fill="#E6090D" transform="translate(224,32)"/>
<path d="M0 0 C0.66 0.66 1.32 1.32 2 2 C2.33 1.34 2.66 0.68 3 0 C5.64 0 8.28 0 11 0 C9.79589535 3.90402772 8.55741221 7.79631121 7.3125 11.6875 C6.97283203 12.79029297 6.63316406 13.89308594 6.28320312 15.02929688 C4.00347742 22.08153248 2.27323879 26.09560156 -3.90234375 30.29296875 C-6.83226939 31.28052283 -9.47698038 31.30196922 -12.5625 31.3125 C-13.69816406 31.32925781 -14.83382812 31.34601563 -16.00390625 31.36328125 C-19 31 -19 31 -20.921875 29.6484375 C-22 28 -22 28 -21.6875 25.3125 C-21.3471875 24.1678125 -21.3471875 24.1678125 -21 23 C-18.36 23 -15.72 23 -13 23 C-12.67 23.66 -12.34 24.32 -12 25 C-9.54775306 24.89386164 -9.54775306 24.89386164 -7 24 C-5.62533375 21.52363988 -5.62533375 21.52363988 -5 19 C-5.53625 19.33 -6.0725 19.66 -6.625 20 C-9.62934544 21.26498755 -11.76767442 21.34386442 -15 21 C-16.875 19.9375 -16.875 19.9375 -18 18 C-18.87208589 12.44045244 -17.44441907 9.17866733 -14.34375 4.734375 C-10.37897607 -0.38294949 -6.29196782 -0.93529251 0 0 Z " fill="#F4F4F4" transform="translate(204,41)"/>
<path d="M0 0 C2.97 0 5.94 0 9 0 C8.01 3.63 7.02 7.26 6 11 C9.63 11 13.26 11 17 11 C17.12375 10.113125 17.2475 9.22625 17.375 8.3125 C17.94412736 5.29612498 18.76614436 2.79673946 20 0 C22.97 0 25.94 0 29 0 C26.36090799 10.11651935 23.18730854 20.04610764 20 30 C16.7 30 13.4 30 10 30 C10.47690204 28.37433394 10.95659666 26.74948689 11.4375 25.125 C11.70433594 24.22007813 11.97117187 23.31515625 12.24609375 22.3828125 C13 20 13 20 14 18 C10.37 18 6.74 18 3 18 C2.690625 19.423125 2.38125 20.84625 2.0625 22.3125 C1.48800637 24.95517072 0.85697694 27.42906918 0 30 C-2.97 30 -5.94 30 -9 30 C-8.41105326 24.91542644 -7.29637712 20.42975277 -5.625 15.5625 C-5.40239502 14.91015381 -5.17979004 14.25780762 -4.95043945 13.58569336 C-3.38438146 9.02384652 -1.74360482 4.49666507 0 0 Z " fill="#C61516" transform="translate(67,33)"/>
<path d="M0 0 C2 2 2 2 2.1875 4.5625 C2 7 2 7 1 8 C-0.51928038 8.07179964 -2.04167482 8.08392007 -3.5625 8.0625 C-4.38878906 8.05347656 -5.21507813 8.04445313 -6.06640625 8.03515625 C-6.70449219 8.02355469 -7.34257813 8.01195312 -8 8 C-8.33 7.01 -8.66 6.02 -9 5 C-10.65 5 -12.3 5 -14 5 C-14 5.99 -14 6.98 -14 8 C-13.22914062 8.25394531 -12.45828125 8.50789063 -11.6640625 8.76953125 C-10.66117188 9.11371094 -9.65828125 9.45789062 -8.625 9.8125 C-7.12839844 10.31716797 -7.12839844 10.31716797 -5.6015625 10.83203125 C-3 12 -3 12 -1 15 C-1 20.06781613 -3.00647012 22.94974814 -6.33984375 26.51953125 C-10.72890689 30.43354285 -16.05182812 30.37144388 -21.65625 30.26171875 C-24.71957901 29.91964701 -26.6467383 28.97370336 -29 27 C-30.35439668 24.29120665 -30.06501451 21.99066732 -30 19 C-26.7 19 -23.4 19 -20 19 C-19.67 20.32 -19.34 21.64 -19 23 C-16.69 23 -14.38 23 -12 23 C-12 21.68 -12 20.36 -12 19 C-13.03060547 18.61908203 -13.03060547 18.61908203 -14.08203125 18.23046875 C-14.98308594 17.88628906 -15.88414063 17.54210937 -16.8125 17.1875 C-17.70582031 16.85105469 -18.59914063 16.51460937 -19.51953125 16.16796875 C-21.94928726 15.02387891 -23.33341825 14.08187882 -25 12 C-25.5 9.6875 -25.5 9.6875 -25 7 C-21.37175409 1.85998496 -18.8149413 -0.33766087 -12.8125 -1.75 C-8.27881383 -2.0472909 -4.2949542 -1.49579871 0 0 Z " fill="#F4F4F4" transform="translate(57,34)"/>
<path d="M0 0 C2.3515625 1.32421875 2.3515625 1.32421875 4 3 C4.25 6.1875 4.25 6.1875 4 9 C1.03 9 -1.94 9 -5 9 C-5.33 8.34 -5.66 7.68 -6 7 C-7.65 7 -9.3 7 -11 7 C-11.33 7.99 -11.66 8.98 -12 10 C-11.39671875 10.10957031 -10.7934375 10.21914063 -10.171875 10.33203125 C-1.30743845 12.09062108 -1.30743845 12.09062108 1 15 C1.47025834 18.62770716 1.2928592 21.17999425 0.0625 24.625 C-3.61400794 28.8585546 -8.05941658 31.53386307 -13.63671875 32.41796875 C-18.5484172 32.57214762 -22.04866352 32.18656168 -26 29 C-27 28 -27 28 -27.0625 24.4375 C-27.041875 23.303125 -27.02125 22.16875 -27 21 C-24.03 21 -21.06 21 -18 21 C-17.67 21.99 -17.34 22.98 -17 24 C-14.69 24 -12.38 24 -10 24 C-10 22.68 -10 21.36 -10 20 C-10.61488281 19.81824219 -11.22976562 19.63648437 -11.86328125 19.44921875 C-12.67152344 19.19785156 -13.47976562 18.94648437 -14.3125 18.6875 C-15.11300781 18.44386719 -15.91351563 18.20023438 -16.73828125 17.94921875 C-19.14687132 16.93835971 -20.39530196 16.04649781 -22 14 C-22.56513402 10.28626215 -22.32842015 8.54315639 -20.375 5.3125 C-14.48702573 -0.42052758 -7.95716561 -1.13040514 0 0 Z " fill="#F3F3F3" transform="translate(152,32)"/>
<path d="M0 0 C1.04027344 -0.03738281 2.08054688 -0.07476562 3.15234375 -0.11328125 C6.0625 0.3125 6.0625 0.3125 8.421875 2.10546875 C10.74029399 5.22429429 10.41310978 7.52591439 10.0625 11.3125 C9.7325 11.9725 9.4025 12.6325 9.0625 13.3125 C3.1225 13.3125 -2.8175 13.3125 -8.9375 13.3125 C-8.2775 14.6325 -7.6175 15.9525 -6.9375 17.3125 C-5.9784375 17.065 -5.9784375 17.065 -5 16.8125 C-0.96163348 16.15317485 2.98057258 16.23246221 7.0625 16.3125 C2.53441222 21.37330399 -1.2883153 23.27059395 -8 23.75 C-11.9375 23.3125 -11.9375 23.3125 -14.9375 21.25 C-17.4699171 17.53051238 -17.63599726 15.736316 -16.9375 11.3125 C-12.70407129 3.60161199 -8.80696654 0.20683852 0 0 Z " fill="#F3F3F3" transform="translate(172.9375,40.6875)"/>
<path d="M0 0 C2.31 0.33 4.62 0.66 7 1 C7 2.98 7 4.96 7 7 C6.34 7 5.68 7 5 7 C4.67 8.32 4.34 9.64 4 11 C1.69 11 -0.62 11 -3 11 C-4.85961414 15.2505466 -5.93204565 19.49933525 -7 24 C-7.66 24 -8.32 24 -9 24 C-9 24.99 -9 25.98 -9 27 C-12.96 27 -16.92 27 -21 27 C-21 25.68 -21 24.36 -21 23 C-21.64839844 23.65097656 -22.29679687 24.30195312 -22.96484375 24.97265625 C-26.97778505 27.65311511 -29.85523397 27.56275772 -34.5625 27.4375 C-35.69461914 27.44813477 -35.69461914 27.44813477 -36.84960938 27.45898438 C-40.13464098 27.42135846 -42.5753425 27.23272569 -45.48046875 25.640625 C-47.43552413 23.52976829 -47.69517961 21.81958858 -48 19 C-48.66 19 -49.32 19 -50 19 C-50.309375 20.134375 -50.61875 21.26875 -50.9375 22.4375 C-52 26 -52 26 -53 27 C-55.01964199 27.07244053 -57.04167124 27.08377188 -59.0625 27.0625 C-60.16722656 27.05347656 -61.27195313 27.04445313 -62.41015625 27.03515625 C-63.26480469 27.02355469 -64.11945313 27.01195313 -65 27 C-65.66 25.02 -66.32 23.04 -67 21 C-69.87420123 23.71604715 -69.87420123 23.71604715 -72 27 C-75.96 27 -79.92 27 -84 27 C-83.40806275 19.89675305 -82.45525915 12.72573125 -80 6 C-79.01 5.34 -78.02 4.68 -77 4 C-78.44386126 11.21930632 -80.57788174 18.05110733 -83 25 C-80.03 25 -77.06 25 -74 25 C-73.79503906 24.21753906 -73.59007812 23.43507813 -73.37890625 22.62890625 C-73.10949219 21.61699219 -72.84007812 20.60507812 -72.5625 19.5625 C-72.29566406 18.55316406 -72.02882812 17.54382813 -71.75390625 16.50390625 C-71 14 -71 14 -70 13 C-68.31391034 12.92794489 -66.62499341 12.91613932 -64.9375 12.9375 C-64.01839844 12.94652344 -63.09929687 12.95554687 -62.15234375 12.96484375 C-61.44207031 12.97644531 -60.73179687 12.98804688 -60 13 C-60.31049726 14.43793392 -60.6234776 15.8753318 -60.9375 17.3125 C-61.19853516 18.51326172 -61.19853516 18.51326172 -61.46484375 19.73828125 C-62 22 -62 22 -63 25 C-60.03 25 -57.06 25 -54 25 C-53.80664062 24.27554688 -53.61328125 23.55109375 -53.4140625 22.8046875 C-52.07139714 17.81954385 -50.71250514 12.87405309 -49 8 C-48.67 8 -48.34 8 -48 8 C-47.505 10.475 -47.505 10.475 -47 13 C-46.34 11.68 -45.68 10.36 -45 9 C-44.34 9.33 -43.68 9.66 -43 10 C-43.350625 10.639375 -43.70125 11.27875 -44.0625 11.9375 C-45.34990613 16.1430267 -44.6908847 19.71464763 -44 24 C-32.77500824 24.71474684 -32.77500824 24.71474684 -23 20 C-23.66 19.01 -24.32 18.02 -25 17 C-23.35 17 -21.7 17 -20 17 C-18.84058962 20.47823115 -19.29179116 22.45895578 -20 26 C-17.03 25.67 -14.06 25.34 -11 25 C-10.60167969 23.87851562 -10.60167969 23.87851562 -10.1953125 22.734375 C-9.84210938 21.74953125 -9.48890625 20.7646875 -9.125 19.75 C-8.77695312 18.77546875 -8.42890625 17.8009375 -8.0703125 16.796875 C-6.14575214 11.76773188 -6.14575214 11.76773188 -5 10 C-1.375 9.25 -1.375 9.25 2 9 C3.47047336 5.08936776 3.47047336 5.08936776 4 1 C2.68 0.67 1.36 0.34 0 0 Z " fill="#2E0101" transform="translate(297,38)"/>
<path d="M0 0 C0.9384375 -0.00515625 1.876875 -0.0103125 2.84375 -0.015625 C5.6000334 0.26000334 7.23465497 0.66374009 9.5 2.25 C10.52199956 6.49522894 10.56678404 8.98286383 9.5 13.25 C3.56 13.25 -2.38 13.25 -8.5 13.25 C-8.17 14.57 -7.84 15.89 -7.5 17.25 C-6.2934375 17.0025 -6.2934375 17.0025 -5.0625 16.75 C-0.84112648 16.15752652 3.24664545 16.16493291 7.5 16.25 C3.71463219 20.23998229 1.7889082 22.18338451 -3.85546875 22.34765625 C-5.12003906 22.33605469 -6.38460938 22.32445313 -7.6875 22.3125 C-8.95980469 22.30347656 -10.23210937 22.29445313 -11.54296875 22.28515625 C-13.00669922 22.26775391 -13.00669922 22.26775391 -14.5 22.25 C-16.3291543 19.16154332 -16.7064877 17.23729251 -16.25 13.6875 C-16.16234375 12.92308594 -16.0746875 12.15867187 -15.984375 11.37109375 C-15.5 9.25 -15.5 9.25 -13.5 6.25 C-12.84 6.25 -12.18 6.25 -11.5 6.25 C-11.5 5.59 -11.5 4.93 -11.5 4.25 C-10.84 4.25 -10.18 4.25 -9.5 4.25 C-9.5 3.59 -9.5 2.93 -9.5 2.25 C-6.2396882 0.31226752 -3.77138064 -0.02072187 0 0 Z " fill="#DF0D0E" transform="translate(267.5,40.75)"/>
<path d="M0 0 C2.97 0 5.94 0 9 0 C8.01984561 3.67231178 7.01623836 7.3375172 6 11 C5.67 12.19625 5.34 13.3925 5 14.625 C4.505 15.800625 4.505 15.800625 4 17 C3.01 17.33 2.02 17.66 1 18 C0.67 19.98 0.34 21.96 0 24 C-0.66 24 -1.32 24 -2 24 C-2 25.65 -2 27.3 -2 29 C-3.65 29 -5.3 29 -7 29 C-7 27.35 -7 25.7 -7 24 C-6.34 24 -5.68 24 -5 24 C-5 21.69 -5 19.38 -5 17 C-6.32 16.67 -7.64 16.34 -9 16 C-8.67 14.68 -8.34 13.36 -8 12 C-6.35 12 -4.7 12 -3 12 C-2.814375 10.4221875 -2.814375 10.4221875 -2.625 8.8125 C-2.08859218 5.54041229 -1.36119965 2.99463924 0 0 Z " fill="#F10605" transform="translate(87,33)"/>
<path d="M0 0 C5.61 0 11.22 0 17 0 C16 2 15 4 14 6 C11.67843403 6.40729228 9.3431213 6.74438677 7 7 C6.731875 7.804375 6.46375 8.60875 6.1875 9.4375 C4.79166667 13.625 3.39583333 17.8125 2 22 C-0.64 22 -3.28 22 -6 22 C-5.40432465 16.73477767 -4.18546784 12.05373915 -2.4375 7.0625 C-1.633125 4.731875 -0.82875 2.40125 0 0 Z " fill="#C51417" transform="translate(285,41)"/>
<path d="M0 0 C1.2065625 0.0309375 1.2065625 0.0309375 2.4375 0.0625 C2.74599271 4.27856709 2.16891799 7.1176848 0.36328125 10.92578125 C-1.25959628 14.67140998 -2.38138988 18.59525196 -3.59765625 22.48828125 C-4.5625 25.0625 -4.5625 25.0625 -6.5625 27.0625 C-7.8825 26.7325 -9.2025 26.4025 -10.5625 26.0625 C-10.2325 22.4325 -9.9025 18.8025 -9.5625 15.0625 C-10.2225 15.0625 -10.8825 15.0625 -11.5625 15.0625 C-11.8925 14.0725 -12.2225 13.0825 -12.5625 12.0625 C-11.634375 11.918125 -10.70625 11.77375 -9.75 11.625 C-6.47280407 10.42191192 -6.47280407 10.42191192 -5.53125 7.9609375 C-5.01631375 6.3388883 -4.53986717 4.70404231 -4.10546875 3.05859375 C-3.30073654 0.10018974 -3.15057812 0.07684337 0 0 Z " fill="#F10605" transform="translate(247.5625,33.9375)"/>
<path d="M0 0 C1.65 0 3.3 0 5 0 C4.67 3.3 4.34 6.6 4 10 C5.32 10.66 6.64 11.32 8 12 C5 14 5 14 2.375 15.1875 C-0.37660859 16.87205824 -0.37660859 16.87205824 -0.6875 20.5 C-0.8421875 22.2325 -0.8421875 22.2325 -1 24 C-1.66 24.99 -2.32 25.98 -3 27 C-5.625 27.1875 -5.625 27.1875 -8 27 C-7.35907519 21.55573982 -6.13286408 16.49675581 -4.5625 11.25 C-4.34529297 10.49589844 -4.12808594 9.74179687 -3.90429688 8.96484375 C-2.90822556 5.59674674 -1.96129939 2.94194908 0 0 Z " fill="#F70304" transform="translate(68,35)"/>
<path d="M0 0 C0.9384375 -0.00515625 1.876875 -0.0103125 2.84375 -0.015625 C5.6000334 0.26000334 7.23465497 0.66374009 9.5 2.25 C10.52199956 6.49522894 10.56678404 8.98286383 9.5 13.25 C3.89 13.25 -1.72 13.25 -7.5 13.25 C-7.5 12.92 -7.5 12.59 -7.5 12.25 C-2.55 11.92 2.4 11.59 7.5 11.25 C7.83 8.61 8.16 5.97 8.5 3.25 C6.52 3.25 4.54 3.25 2.5 3.25 C2.5 5.23 2.5 7.21 2.5 9.25 C-0.47 9.25 -3.44 9.25 -6.5 9.25 C-6.5 7.93 -6.5 6.61 -6.5 5.25 C-7.82 5.25 -9.14 5.25 -10.5 5.25 C-10.5 5.91 -10.5 6.57 -10.5 7.25 C-11.49 7.745 -11.49 7.745 -12.5 8.25 C-14.65042257 12.21130474 -14.67945005 14.92534981 -13.5 19.25 C-10.93106162 20.53446919 -8.73423663 20.57977144 -5.875 20.8125 C-4.87210937 20.89628906 -3.86921875 20.98007812 -2.8359375 21.06640625 C-2.06507813 21.12699219 -1.29421875 21.18757813 -0.5 21.25 C-0.5 21.58 -0.5 21.91 -0.5 22.25 C-5.12 22.25 -9.74 22.25 -14.5 22.25 C-16.44031113 18.36937774 -16.7600179 17.65356026 -16.25 13.6875 C-16.16234375 12.92308594 -16.0746875 12.15867187 -15.984375 11.37109375 C-15.5 9.25 -15.5 9.25 -13.5 6.25 C-12.84 6.25 -12.18 6.25 -11.5 6.25 C-11.5 5.59 -11.5 4.93 -11.5 4.25 C-10.84 4.25 -10.18 4.25 -9.5 4.25 C-9.5 3.59 -9.5 2.93 -9.5 2.25 C-6.2396882 0.31226752 -3.77138064 -0.02072187 0 0 Z " fill="#C71516" transform="translate(267.5,40.75)"/>
<path d="M0 0 C0.99 0.33 1.98 0.66 3 1 C3.76471285 4.48369189 3.9983724 7.0103081 3.4375 10.5625 C2.97700391 14.18068358 3.35662785 15.80992466 5 19 C3.56589632 19.24954005 2.12739928 19.47392642 0.6875 19.6875 C-0.11300781 19.81511719 -0.91351563 19.94273438 -1.73828125 20.07421875 C-4 20 -4 20 -5.76171875 18.71875 C-7.89166269 15.76236094 -7.4641445 13.53910185 -7 10 C-5.16200155 6.22869948 -2.96588862 2.96588862 0 0 Z " fill="#F6F6F6" transform="translate(193,42)"/>
<path d="M0 0 C6.25 -0.48076923 6.25 -0.48076923 9.4375 1.5625 C11.54724594 4.85370366 11.35519903 7.16385043 11 11 C10.67 11.66 10.34 12.32 10 13 C7.69 13 5.38 13 3 13 C3 12.01 3 11.02 3 10 C0.03 9.67 -2.94 9.34 -6 9 C-4.625 7 -4.625 7 -3 5 C-2.34 5 -1.68 5 -1 5 C-1.33 4.01 -1.66 3.02 -2 2 C-1.34 2 -0.68 2 0 2 C0 1.34 0 0.68 0 0 Z " fill="#F0F0F0" transform="translate(172,41)"/>
<path d="M0 0 C1 2 1 2 0.39501953 4.2590332 C0.06099121 5.18031006 -0.27303711 6.10158691 -0.6171875 7.05078125 C-0.97683594 8.05947266 -1.33648437 9.06816406 -1.70703125 10.10742188 C-2.28517578 11.69393555 -2.28517578 11.69393555 -2.875 13.3125 C-3.62540594 15.39084272 -4.37290634 17.47023731 -5.1171875 19.55078125 C-5.45347168 20.47544189 -5.78975586 21.40010254 -6.13623047 22.3527832 C-6.96477368 24.89204099 -7.53477622 27.37234717 -8 30 C-5.03 30 -2.06 30 1 30 C1.66 27.03 2.32 24.06 3 21 C3.33 21 3.66 21 4 21 C4.07622858 24.96388638 3.9681648 28.1273408 3 32 C-1.29 32 -5.58 32 -10 32 C-10.9765625 25.9453125 -10.9765625 25.9453125 -11 24 C-10.34 23.34 -9.68 22.68 -9 22 C-8.46476772 19.83992855 -8.46476772 19.83992855 -8.125 17.375 C-7.21244531 12.31179335 -5.49129284 8.48432712 -3 4 C-2.34 4 -1.68 4 -1 4 C-0.67 2.68 -0.34 1.36 0 0 Z " fill="#3F0100" transform="translate(66,33)"/>
<path d="M0 0 C2 2 2 2 2.1875 4.5625 C2 7 2 7 1 8 C-0.51928038 8.07179964 -2.04167482 8.08392007 -3.5625 8.0625 C-4.38878906 8.05347656 -5.21507812 8.04445313 -6.06640625 8.03515625 C-6.70449219 8.02355469 -7.34257813 8.01195312 -8 8 C-8.33 7.01 -8.66 6.02 -9 5 C-9.99 4.690625 -10.98 4.38125 -12 4.0625 C-12.99 3.711875 -13.98 3.36125 -15 3 C-15.875 0.875 -15.875 0.875 -16 -1 C-10.30646459 -2.21139051 -5.53623726 -1.92809892 0 0 Z " fill="#EEEEEF" transform="translate(57,34)"/>
<path d="M0 0 C1.65 0 3.3 0 5 0 C5.33 1.32 5.66 2.64 6 4 C7.41750563 3.88490339 8.83401169 3.75746342 10.25 3.625 C11.43335938 3.52058594 11.43335938 3.52058594 12.640625 3.4140625 C15.085877 2.98492887 16.84836903 2.21399362 19 1 C18.43668544 3.63079887 17.85066024 6.25271463 17.25 8.875 C17.01410156 9.99455078 17.01410156 9.99455078 16.7734375 11.13671875 C15.4791035 16.66252929 15.4791035 16.66252929 12.859375 18.5078125 C11.93898438 18.75144531 11.93898438 18.75144531 11 19 C11.35807292 17.01432292 11.71614583 15.02864583 12.07421875 13.04296875 C12.18546617 10.94543804 12.18546617 10.94543804 10.84375 9.375 C8.60666074 7.70666225 6.42218312 6.79536767 3.8125 5.8125 C2.91144531 5.46832031 2.01039062 5.12414063 1.08203125 4.76953125 C0.39496094 4.51558594 -0.29210938 4.26164062 -1 4 C-0.67 2.68 -0.34 1.36 0 0 Z " fill="#0B090A" transform="translate(43,38)"/>
<path d="M0 0 C1.65 0.33 3.3 0.66 5 1 C4.54625 2.19625 4.0925 3.3925 3.625 4.625 C2.33582632 8.05872327 1.13380949 11.51135543 0 15 C-0.66 15 -1.32 15 -2 15 C-2 15.99 -2 16.98 -2 18 C-3.32 18 -4.64 18 -6 18 C-6.05447047 16.58376784 -6.09300508 15.16691809 -6.125 13.75 C-6.14820313 12.96109375 -6.17140625 12.1721875 -6.1953125 11.359375 C-5.9828378 8.79268059 -5.28654105 7.2083933 -4 5 C-3.01 5 -2.02 5 -1 5 C-0.67 3.35 -0.34 1.7 0 0 Z " fill="#E10B09" transform="translate(287,43)"/>
<path d="M0 0 C1.97909398 -0.02686553 3.95828971 -0.04633375 5.9375 -0.0625 C7.03964844 -0.07410156 8.14179688 -0.08570312 9.27734375 -0.09765625 C12 0 12 0 13 1 C13.04063832 2.66617115 13.042721 4.33388095 13 6 C12.01 6.33 11.02 6.66 10 7 C9.87625 7.94875 9.7525 8.8975 9.625 9.875 C9 13 9 13 7 15 C7.63156995 9.94744036 9.13459373 5.70406799 11 1 C6.545 1.495 6.545 1.495 2 2 C1.01 5.3 0.02 8.6 -1 12 C-4.3 12 -7.6 12 -11 12 C-11.19622241 7.78121808 -10.80230168 4.82989106 -9 1 C-8.67 1 -8.34 1 -8 1 C-8.33 3.97 -8.66 6.94 -9 10 C-7.02 10 -5.04 10 -3 10 C-2.87625 9.278125 -2.7525 8.55625 -2.625 7.8125 C-2.00886811 5.03990651 -1.08268971 2.61870071 0 0 Z " fill="#430101" transform="translate(242,31)"/>
<path d="M0 0 C2.64 0 5.28 0 8 0 C8.33 0.66 8.66 1.32 9 2 C11.01669827 3.13350534 11.01669827 3.13350534 13 4 C13 5.32 13 6.64 13 8 C11.22992286 8.08114106 9.45877902 8.13925505 7.6875 8.1875 C6.70136719 8.22230469 5.71523437 8.25710937 4.69921875 8.29296875 C2 8 2 8 0.125 6.65625 C-1 5 -1 5 -0.6875 2.3125 C-0.460625 1.549375 -0.23375 0.78625 0 0 Z " fill="#EEEEEE" transform="translate(183,64)"/>
<path d="M0 0 C1 2 1 2 0.47094727 4.15478516 C0.17244873 5.02409668 -0.1260498 5.8934082 -0.43359375 6.7890625 C-0.9121582 8.20058594 -0.9121582 8.20058594 -1.40039062 9.640625 C-1.74263672 10.62546875 -2.08488281 11.6103125 -2.4375 12.625 C-2.77587891 13.61757813 -3.11425781 14.61015625 -3.46289062 15.6328125 C-4.30195087 18.09090448 -5.14790691 20.54640157 -6 23 C-8.97 23 -11.94 23 -15 23 C-13.125 14.375 -13.125 14.375 -12 11 C-15.3 11 -18.6 11 -22 11 C-18.91111478 8.94074319 -18.29064073 8.7609626 -14.8125 8.875 C-12.9253125 8.936875 -12.9253125 8.936875 -11 9 C-11 12.63 -11 16.26 -11 20 C-9.68 19.67 -8.36 19.34 -7 19 C-5.91504924 17.22972753 -5.91504924 17.22972753 -5.33203125 15 C-5.07873047 14.195625 -4.82542969 13.39125 -4.56445312 12.5625 C-4.31630859 11.716875 -4.06816406 10.87125 -3.8125 10 C-3.30035315 8.33266337 -2.786139 6.66595987 -2.26953125 5 C-2.04885986 4.2575 -1.82818848 3.515 -1.60083008 2.75 C-1 1 -1 1 0 0 Z " fill="#C01414" transform="translate(249,40)"/>
<path d="M0 0 C3.63 0 7.26 0 11 0 C8.125 9.75 8.125 9.75 7 12 C10.3 12 13.6 12 17 12 C17.33 9.69 17.66 7.38 18 5 C19.22596039 8.67788118 18.84310077 9.78449613 18 14 C14.04 14 10.08 14 6 14 C6 10.37 6 6.74 6 3 C4.02 3 2.04 3 0 3 C0 2.01 0 1.02 0 0 Z " fill="#4B0101" transform="translate(70,51)"/>
<path d="M0 0 C1.26122076 3.52659818 0.74690147 5.2177767 -0.8125 8.5625 C-3.12737685 13.93717946 -4.16625091 19.22957863 -5 25 C-3.35 24.67 -1.7 24.34 0 24 C0.99 20.535 0.99 20.535 2 17 C3.478746 21.436238 1.74833678 23.73405826 0 28 C-2.97 28 -5.94 28 -9 28 C-8.31876822 22.28522232 -6.43196846 17.13468317 -4.5 11.75 C-4.01853516 10.38488281 -4.01853516 10.38488281 -3.52734375 8.9921875 C-1.16477997 2.32955995 -1.16477997 2.32955995 0 0 Z " fill="#BF1717" transform="translate(223,35)"/>
<path d="M0 0 C1.65 0 3.3 0 5 0 C4.67 4.29 4.34 8.58 4 13 C3.34 13 2.68 13 2 13 C2 13.66 2 14.32 2 15 C1.01 15 0.02 15 -1 15 C-1.97798721 11.20431539 -1.92653069 8.4994001 -1.0625 4.6875 C-0.86785156 3.80449219 -0.67320312 2.92148437 -0.47265625 2.01171875 C-0.31667969 1.34785156 -0.16070312 0.68398438 0 0 Z " fill="#F60404" transform="translate(224,35)"/>
<path d="M0 0 C2.97 0.99 5.94 1.98 9 3 C8.67 4.65 8.34 6.3 8 8 C5.69 8 3.38 8 1 8 C0.67 6.68 0.34 5.36 0 4 C-2.31 4 -4.62 4 -7 4 C-7 3.67 -7 3.34 -7 3 C-5.5459375 2.5359375 -5.5459375 2.5359375 -4.0625 2.0625 C-1.15934208 1.30476658 -1.15934208 1.30476658 0 0 Z " fill="#161616" transform="translate(134,49)"/>
<path d="M0 0 C2.03125 3.765625 2.03125 3.765625 1.75 5.875 C1.5025 6.57625 1.255 7.2775 1 8 C0.649375 9.0725 0.29875 10.145 -0.0625 11.25 C-0.371875 12.1575 -0.68125 13.065 -1 14 C-1.66 14 -2.32 14 -3 14 C-2.67 15.65 -2.34 17.3 -2 19 C-1.01 18.67 -0.02 18.34 1 18 C0.49396008 20.16874252 0.00016187 21.99967627 -1 24 C-2.65 24 -4.3 24 -6 24 C-5.36145015 18.47324097 -4.06306646 13.37632649 -2.4375 8.0625 C-2.20353516 7.28326172 -1.96957031 6.50402344 -1.72851562 5.70117188 C-1.15682579 3.79942813 -0.57904309 1.89951774 0 0 Z " fill="#E70909" transform="translate(66,38)"/>
<path d="M0 0 C2.6015625 -0.29296875 2.6015625 -0.29296875 5.625 -0.1875 C7.12933594 -0.14689453 7.12933594 -0.14689453 8.6640625 -0.10546875 C9.43492188 -0.07066406 10.20578125 -0.03585938 11 0 C10.96486395 8.9245574 8.39301883 15.30214132 4 23 C3 21 3 21 3.52905273 18.93701172 C3.82755127 18.10959473 4.1260498 17.28217773 4.43359375 16.4296875 C4.75263672 15.53378906 5.07167969 14.63789062 5.40039062 13.71484375 C5.74263672 12.77769531 6.08488281 11.84054688 6.4375 10.875 C6.94506836 9.45767578 6.94506836 9.45767578 7.46289062 8.01171875 C8.3018906 5.67197234 9.14784292 3.33497991 10 1 C7.03 1 4.06 1 1 1 C0.34 3.31 -0.32 5.62 -1 8 C-1.33 8 -1.66 8 -2 8 C-2.20086443 4.28400809 -2.1519437 3.22791555 0 0 Z " fill="#4D0202" transform="translate(86,32)"/>
<path d="M0 0 C0.66 0 1.32 0 2 0 C3.04894965 4.62649316 2.82806355 7.81897123 1.5625 12.375 C1.27503906 13.43460938 0.98757812 14.49421875 0.69140625 15.5859375 C0.46324219 16.38257812 0.23507813 17.17921875 0 18 C-0.99 17.34 -1.98 16.68 -3 16 C-3.66 15.67 -4.32 15.34 -5 15 C-3.35 10.05 -1.7 5.1 0 0 Z " fill="#120507" transform="translate(213,45)"/>
<path d="M0 0 C1.32 0 2.64 0 4 0 C3.690625 0.99 3.38125 1.98 3.0625 3 C1.91566793 6.97731122 1.43287644 10.88767379 1 15 C-0.32 14.34 -1.64 13.68 -3 13 C-3 9.7 -3 6.4 -3 3 C-2.01 2.67 -1.02 2.34 0 2 C0 1.34 0 0.68 0 0 Z " fill="#F10706" transform="translate(257,46)"/>
<path d="M0 0 C2.97 0 5.94 0 9 0 C5.92482916 11.52164009 5.92482916 11.52164009 4 17 C2.39271728 12.9817932 3.72069643 9.98005555 5 6 C5.34135927 4.66869885 5.67925956 3.33641852 6 2 C4.02 2.33 2.04 2.66 0 3 C-0.12375 4.134375 -0.2475 5.26875 -0.375 6.4375 C-0.58125 7.613125 -0.7875 8.78875 -1 10 C-1.99 10.495 -1.99 10.495 -3 11 C-2.44894091 7.0507432 -1.61064629 3.65079826 0 0 Z " fill="#B71B1D" transform="translate(87,33)"/>
<path d="M0 0 C0.33 0.99 0.66 1.98 1 3 C-0.9375 5.6875 -0.9375 5.6875 -3 8 C-4.65 7.67 -6.3 7.34 -8 7 C-8 6.34 -8 5.68 -8 5 C-10.64 5 -13.28 5 -16 5 C-14.35 3.68 -12.7 2.36 -11 1 C-10.67 1.33 -10.34 1.66 -10 2 C-7.89139643 1.93595702 -7.89139643 1.93595702 -5.5 1.625 C-4.27796875 1.48964844 -4.27796875 1.48964844 -3.03125 1.3515625 C-1.01069478 1.20274712 -1.01069478 1.20274712 0 0 Z " fill="#252525" transform="translate(199,59)"/>
<path d="M0 0 C2.625 0.375 2.625 0.375 5 1 C4.25 6.75 4.25 6.75 2 9 C-0.625 9.125 -0.625 9.125 -3 9 C-2.25 2.25 -2.25 2.25 0 0 Z " fill="#0C0C0C" transform="translate(198,47)"/>
<path d="M0 0 C5.61 0 11.22 0 17 0 C15 3 15 3 12.79296875 3.765625 C11.93316406 3.92546875 11.07335937 4.0853125 10.1875 4.25 C8.90939453 4.50523438 8.90939453 4.50523438 7.60546875 4.765625 C4.84238833 5.01417796 2.67863623 4.67326584 0 4 C0 2.68 0 1.36 0 0 Z " fill="#470000" transform="translate(259,54)"/>
<path d="M0 0 C1.37478516 0.01740234 1.37478516 0.01740234 2.77734375 0.03515625 C3.69644531 0.04417969 4.61554688 0.05320313 5.5625 0.0625 C6.27277344 0.07410156 6.98304688 0.08570313 7.71484375 0.09765625 C7.43124488 1.53676965 7.13762976 2.97391143 6.83984375 4.41015625 C6.67742187 5.21066406 6.515 6.01117188 6.34765625 6.8359375 C5.71484375 9.09765625 5.71484375 9.09765625 3.71484375 12.09765625 C4.04484375 8.79765625 4.37484375 5.49765625 4.71484375 2.09765625 C1.79281958 1.95734059 1.79281958 1.95734059 -1.28515625 3.09765625 C-2.3976568 5.12197098 -3.02540372 7.06264717 -3.64453125 9.28515625 C-4.28515625 11.09765625 -4.28515625 11.09765625 -6.28515625 12.09765625 C-5.81009947 10.28407471 -5.32999583 8.47181446 -4.84765625 6.66015625 C-4.58082031 5.65082031 -4.31398437 4.64148437 -4.0390625 3.6015625 C-2.9931744 0.12791344 -2.9931744 0.12791344 0 0 Z " fill="#4D0101" transform="translate(229.28515625,50.90234375)"/>
<path d="M0 0 C3.3 0 6.6 0 10 0 C10 3.3 10 6.6 10 10 C12.31 9.34 14.62 8.68 17 8 C17 9.32 17 10.64 17 12 C13.37 12 9.74 12 6 12 C7.875 3.25 7.875 3.25 9 1 C6.03 1 3.06 1 0 1 C0 0.67 0 0.34 0 0 Z " fill="#5B0201" transform="translate(67,32)"/>
<path d="M0 0 C0.33 0 0.66 0 1 0 C1 1.65 1 3.3 1 5 C-1.6666419 6.33332095 -3.16680303 5.67102033 -6 5 C-5.67 5.99 -5.34 6.98 -5 8 C-8.63 7.01 -12.26 6.02 -16 5 C-15.67 3.68 -15.34 2.36 -15 1 C-13.35 1 -11.7 1 -10 1 C-9.67 1.99 -9.34 2.98 -9 4 C-6.03 4 -3.06 4 0 4 C0 2.68 0 1.36 0 0 Z " fill="#1F1F1F" transform="translate(156,37)"/>
<path d="M0 0 C0.66 0 1.32 0 2 0 C1.68817931 1.41681634 1.37551263 2.83344651 1.0625 4.25 C0.88847656 5.03890625 0.71445313 5.8278125 0.53515625 6.640625 C0.0527843 8.76728673 -0.47110699 10.88442798 -1 13 C-4.3 13 -7.6 13 -11 13 C-10.01 9.7 -9.02 6.4 -8 3 C-7.04095144 6.83619425 -7.08107884 8.32431536 -8 12 C-6.35 12 -4.7 12 -3 12 C-3 10.35 -3 8.7 -3 7 C-2.34 7 -1.68 7 -1 7 C-1.020625 6.030625 -1.04125 5.06125 -1.0625 4.0625 C-1 1 -1 1 0 0 Z " fill="#B71819" transform="translate(88,50)"/>
<path d="M0 0 C0.33 0 0.66 0 1 0 C1.07622858 3.96388638 0.9681648 7.1273408 0 11 C-4.29 11 -8.58 11 -13 11 C-12.67 8.69 -12.34 6.38 -12 4 C-11.67 4 -11.34 4 -11 4 C-11 5.65 -11 7.3 -11 9 C-8.03 9 -5.06 9 -2 9 C-1.34 6.03 -0.68 3.06 0 0 Z " fill="#530403" transform="translate(69,54)"/>
<path d="M0 0 C0.66 0.33 1.32 0.66 2 1 C0.625 2.5 0.625 2.5 -1 4 C-1.66 4 -2.32 4 -3 4 C-3 4.66 -3 5.32 -3 6 C-3.99 6.495 -3.99 6.495 -5 7 C-7.15042257 10.96130474 -7.17945005 13.67534981 -6 18 C-3.43106162 19.28446919 -1.23423663 19.32977144 1.625 19.5625 C2.62789063 19.64628906 3.63078125 19.73007812 4.6640625 19.81640625 C5.43492187 19.87699219 6.20578125 19.93757813 7 20 C7 20.33 7 20.66 7 21 C2.38 21 -2.24 21 -7 21 C-8.94031113 17.11937774 -9.2600179 16.40356026 -8.75 12.4375 C-8.66234375 11.67308594 -8.5746875 10.90867187 -8.484375 10.12109375 C-8 8 -8 8 -6 5 C-5.34 5 -4.68 5 -4 5 C-4 4.34 -4 3.68 -4 3 C-3.34 3 -2.68 3 -2 3 C-2 2.34 -2 1.68 -2 1 C-1.34 0.67 -0.68 0.34 0 0 Z " fill="#B6181A" transform="translate(260,42)"/>
<path d="M0 0 C2 0 2 0 3.625 1.5 C4.07875 1.995 4.5325 2.49 5 3 C4.1875 5.4375 4.1875 5.4375 3 8 C2.01 8.33 1.02 8.66 0 9 C-1.22520264 12.00847418 -1.22520264 12.00847418 -2 15 C-2.33 15 -2.66 15 -3 15 C-3.36263859 9.1977825 -2.25684543 5.36000789 0 0 Z " fill="#190000" transform="translate(252,38)"/>
<path d="M0 0 C1.98 0.66 3.96 1.32 6 2 C5.67 3.32 5.34 4.64 5 6 C2.69 6.33 0.38 6.66 -2 7 C-2.33 6.01 -2.66 5.02 -3 4 C-1.5625 1.8125 -1.5625 1.8125 0 0 Z " fill="#0F0F0F" transform="translate(40,51)"/>
<path d="M0 0 C1.12018319 3.36054957 0.90181274 4.01723271 -0.21484375 7.23046875 C-0.48876953 8.03291016 -0.76269531 8.83535156 -1.04492188 9.66210938 C-1.48674805 10.91217773 -1.48674805 10.91217773 -1.9375 12.1875 C-2.22818359 13.03248047 -2.51886719 13.87746094 -2.81835938 14.74804688 C-3.53757537 16.83495229 -4.2650343 18.91859994 -5 21 C-2.36 21 0.28 21 3 21 C3 21.33 3 21.66 3 22 C0.03 22 -2.94 22 -6 22 C-4.29787234 4.29787234 -4.29787234 4.29787234 0 0 Z " fill="#560201" transform="translate(219,42)"/>
<path d="M0 0 C1.65 0.33 3.3 0.66 5 1 C4.54625 2.19625 4.0925 3.3925 3.625 4.625 C2.33582632 8.05872327 1.13380949 11.51135543 0 15 C-0.33 15 -0.66 15 -1 15 C-1.10251672 9.87416389 -1.03590199 5.05002222 0 0 Z " fill="#F00506" transform="translate(287,43)"/>
<path d="M0 0 C2.97 0 5.94 0 9 0 C8.34 3.63 7.68 7.26 7 11 C9.97 11 12.94 11 16 11 C16 11.33 16 11.66 16 12 C12.7 12 9.4 12 6 12 C6 8.7 6 5.4 6 2 C4.02 2.33 2.04 2.66 0 3 C0 2.01 0 1.02 0 0 Z " fill="#A61315" transform="translate(224,32)"/>
<path d="M0 0 C3.63 0 7.26 0 11 0 C11 0.99 11 1.98 11 3 C9.54536519 3.38909985 8.08608793 3.76088029 6.625 4.125 C5.81289062 4.33382812 5.00078125 4.54265625 4.1640625 4.7578125 C3.44992188 4.83773437 2.73578125 4.91765625 2 5 C1.34 4.34 0.68 3.68 0 3 C0 2.01 0 1.02 0 0 Z " fill="#1A1A1A" transform="translate(164,54)"/>
<path d="M0 0 C2.32590854 3.63423209 2.16265833 6.77088331 2 11 C0.35 11.33 -1.3 11.66 -3 12 C-3.34833144 7.12335991 -2.41685712 4.22949995 0 0 Z " fill="#F40504" transform="translate(221,48)"/>
<path d="M0 0 C0.91058531 3.07322544 1.08886184 5.80097361 1 9 C4.465 8.505 4.465 8.505 8 8 C7.01 8.33 6.02 8.66 5 9 C5 9.66 5 10.32 5 11 C4.34 11 3.68 11 3 11 C2.67 12.65 2.34 14.3 2 16 C1.67 16 1.34 16 1 16 C0.34 13.69 -0.32 11.38 -1 9 C-1.66 9.99 -2.32 10.98 -3 12 C-2.49202991 7.6822542 -1.80317221 3.96697886 0 0 Z " fill="#E40A0D" transform="translate(222,41)"/>
<path d="M0 0 C2.97 0 5.94 0 9 0 C8.34 2.64 7.68 5.28 7 8 C6.67 8 6.34 8 6 8 C6 6.02 6 4.04 6 2 C3.57080135 1.86559222 3.57080135 1.86559222 1 3 C-0.38293093 5.55518097 -1.21791649 8.20866129 -2 11 C-3.478746 6.563762 -1.74833678 4.26594174 0 0 Z " fill="#B11816" transform="translate(244,32)"/>
<path d="M0 0 C2.01822917 0.06510417 4.03645833 0.13020833 6.0546875 0.1953125 C0.91183036 5.76674107 0.91183036 5.76674107 -2.9453125 6.1953125 C-3.5703125 4.3203125 -3.5703125 4.3203125 -3.9453125 2.1953125 C-1.9453125 0.1953125 -1.9453125 0.1953125 0 0 Z " fill="#ECECEC" transform="translate(173.9453125,56.8046875)"/>
<path d="M0 0 C1.2065625 0.0309375 1.2065625 0.0309375 2.4375 0.0625 C3.0975 2.0425 3.7575 4.0225 4.4375 6.0625 C2.1275 5.7325 -0.1825 5.4025 -2.5625 5.0625 C-3.125 3.125 -3.125 3.125 -3.5625 1.0625 C-2.5625 0.0625 -2.5625 0.0625 0 0 Z " fill="#1B1B1B" transform="translate(45.5625,37.9375)"/>
<path d="M0 0 C2.31 0.33 4.62 0.66 7 1 C7 2.98 7 4.96 7 7 C6.34 7 5.68 7 5 7 C4.67 8.32 4.34 9.64 4 11 C2.68 10.67 1.36 10.34 0 10 C0.66 9.2575 1.32 8.515 2 7.75 C4.39211447 5.02757055 4.39211447 5.02757055 4 1 C2.68 0.67 1.36 0.34 0 0 Z " fill="#1E0101" transform="translate(297,38)"/>
<path d="M0 0 C0.8971875 0.5259375 0.8971875 0.5259375 1.8125 1.0625 C1.8125 2.0525 1.8125 3.0425 1.8125 4.0625 C-1.1575 4.0625 -4.1275 4.0625 -7.1875 4.0625 C-4.24632353 -1.81985294 -4.24632353 -1.81985294 0 0 Z " fill="#630001" transform="translate(268.1875,45.9375)"/>
<path d="M0 0 C1.01586535 3.04759605 1.00433442 4.45093253 0.625 7.5625 C0.53476562 8.34753906 0.44453125 9.13257813 0.3515625 9.94140625 C0 12 0 12 -1 14 C-1.66 14 -2.32 14 -3 14 C-3.66 15.32 -4.32 16.64 -5 18 C-5.125 15.625 -5.125 15.625 -5 13 C-4.34 12.34 -3.68 11.68 -3 11 C-2.35723154 8.60543906 -2.35723154 8.60543906 -1.9375 5.9375 C-1.09722222 1.09722222 -1.09722222 1.09722222 0 0 Z " fill="#260000" transform="translate(60,44)"/>
<path d="M0 0 C-0.61875 0.061875 -1.2375 0.12375 -1.875 0.1875 C-4.2041587 0.79670948 -4.2041587 0.79670948 -5 3.125 C-5.33 4.07375 -5.66 5.0225 -6 6 C-7.26861356 8.37496259 -8.63434525 10.67838693 -10 13 C-10.33 12.34 -10.66 11.68 -11 11 C-10.07421875 8.43359375 -10.07421875 8.43359375 -8.6875 5.4375 C-8.23761719 4.44621094 -7.78773438 3.45492187 -7.32421875 2.43359375 C-5.25093021 -1.37660908 -3.856754 -1.1570262 0 0 Z " fill="#570102" transform="translate(298,48)"/>
<path d="M0 0 C0.94875 0.04125 1.8975 0.0825 2.875 0.125 C1.875 2.125 0.875 4.125 -0.125 6.125 C-3.1875 6.75 -3.1875 6.75 -6.125 7.125 C-6.125 6.465 -6.125 5.805 -6.125 5.125 C-4.805 5.125 -3.485 5.125 -2.125 5.125 C-2.125 4.465 -2.125 3.805 -2.125 3.125 C-3.115 2.795 -4.105 2.465 -5.125 2.125 C-3.125 0.125 -3.125 0.125 0 0 Z " fill="#BE1B1B" transform="translate(299.125,40.875)"/>
<path d="M0 0 C3.3 0 6.6 0 10 0 C10 0.33 10 0.66 10 1 C7.36 1 4.72 1 2 1 C1.87625 1.721875 1.7525 2.44375 1.625 3.1875 C1.0095069 5.95721894 0.11555626 8.3970354 -1 11 C-2.60080151 6.99799622 -1.29279692 3.95443764 0 0 Z " fill="#450202" transform="translate(222,31)"/>
<path d="M0 0 C1.21816406 0.03480469 1.21816406 0.03480469 2.4609375 0.0703125 C3.68683594 0.09738281 3.68683594 0.09738281 4.9375 0.125 C5.87722656 0.15980469 5.87722656 0.15980469 6.8359375 0.1953125 C5.1859375 1.8453125 3.5359375 3.4953125 1.8359375 5.1953125 C0.8459375 4.8653125 -0.1440625 4.5353125 -1.1640625 4.1953125 C-0.5040625 4.1953125 0.1559375 4.1953125 0.8359375 4.1953125 C0.8359375 3.5353125 0.8359375 2.8753125 0.8359375 2.1953125 C-0.8140625 2.1953125 -2.4640625 2.1953125 -4.1640625 2.1953125 C-2.1640625 0.1953125 -2.1640625 0.1953125 0 0 Z " fill="#A81D21" transform="translate(268.1640625,56.8046875)"/>
<path d="M0 0 C1.32 0.33 2.64 0.66 4 1 C3.67 3.31 3.34 5.62 3 8 C2.01 8 1.02 8 0 8 C0 5.36 0 2.72 0 0 Z " fill="#F30606" transform="translate(271,43)"/>
<path d="M0 0 C1.32 0 2.64 0 4 0 C4.37851209 5.93002267 3.10575375 10.47239641 1 16 C-0.3057939 11.80674634 0.66224663 9.16189938 2 5 C2.34135927 3.66869885 2.67925956 2.33641852 3 1 C2.01 0.67 1.02 0.34 0 0 Z " fill="#C81417" transform="translate(90,34)"/>
<path d="M0 0 C0.763125 0.0825 1.52625 0.165 2.3125 0.25 C2.3125 1.57 2.3125 2.89 2.3125 4.25 C-0.3275 4.25 -2.9675 4.25 -5.6875 4.25 C-3.34903846 0.31153846 -3.34903846 0.31153846 0 0 Z " fill="#060606" transform="translate(171.6875,45.75)"/>
<path d="M0 0 C2.64 0 5.28 0 8 0 C8 0.33 8 0.66 8 1 C9.65 1.33 11.3 1.66 13 2 C13 2.33 13 2.66 13 3 C9.04 3 5.08 3 1 3 C0.67 2.01 0.34 1.02 0 0 Z " fill="#D11214" transform="translate(262,50)"/>
<path d="M0 0 C0.33 0 0.66 0 1 0 C1.14285714 7.42857143 1.14285714 7.42857143 0 11 C-1.32 10.67 -2.64 10.34 -4 10 C-2.68 6.7 -1.36 3.4 0 0 Z " fill="#370002" transform="translate(69,54)"/>
<path d="M0 0 C2.31 0.66 4.62 1.32 7 2 C6.01 2.495 6.01 2.495 5 3 C4.67 3.99 4.34 4.98 4 6 C4 5.34 4 4.68 4 4 C1.36 4 -1.28 4 -4 4 C-2.68 2.68 -1.36 1.36 0 0 Z " fill="#151515" transform="translate(187,60)"/>
<path d="M0 0 C1.65 0 3.3 0 5 0 C4.67 2.97 4.34 5.94 4 9 C3.67 9 3.34 9 3 9 C2.67 6.69 2.34 4.38 2 2 C1.01 2.33 0.02 2.66 -1 3 C-0.67 2.01 -0.34 1.02 0 0 Z " fill="#EB0707" transform="translate(68,35)"/>
<path d="M0 0 C1.98 0 3.96 0 6 0 C5.67 1.32 5.34 2.64 5 4 C2.69 4 0.38 4 -2 4 C-1.34 2.68 -0.68 1.36 0 0 Z " fill="#FBFBFB" transform="translate(170,50)"/>
<path d="M0 0 C0.66 0 1.32 0 2 0 C1.745504 1.48206495 1.47088238 2.96068615 1.1875 4.4375 C1.03667969 5.26121094 0.88585937 6.08492187 0.73046875 6.93359375 C0.48941406 7.61550781 0.24835938 8.29742187 0 9 C-0.99 9.33 -1.98 9.66 -3 10 C-3 9.01 -3 8.02 -3 7 C-2.34 7 -1.68 7 -1 7 C-1.020625 6.030625 -1.04125 5.06125 -1.0625 4.0625 C-1 1 -1 1 0 0 Z " fill="#CC1413" transform="translate(88,50)"/>
<path d="M0 0 C1.65 0 3.3 0 5 0 C5.38281159 5.23175837 4.21854707 8.37802694 2 13 C0.87622303 9.69564916 1.10445258 7.9493138 2.4375 4.75 C2.72496094 4.04359375 3.01242188 3.3371875 3.30859375 2.609375 C3.53675781 2.07828125 3.76492187 1.5471875 4 1 C2.68 0.67 1.36 0.34 0 0 Z " fill="#E50A0B" transform="translate(245,34)"/>
<path d="M0 0 C1.21386936 3.64160808 0.6674695 4.33165469 -0.9375 7.6875 C-1.31777344 8.49574219 -1.69804687 9.30398437 -2.08984375 10.13671875 C-2.39019531 10.75160156 -2.69054687 11.36648437 -3 12 C-4.12668965 8.61993106 -3.89636912 8.0359269 -2.625 4.875 C-2.34914062 4.17117187 -2.07328125 3.46734375 -1.7890625 2.7421875 C-1 1 -1 1 0 0 Z " fill="#3F0000" transform="translate(219,42)"/>
<path d="M0 0 C0.66 0 1.32 0 2 0 C2.33 1.65 2.66 3.3 3 5 C1.35 5.66 -0.3 6.32 -2 7 C-1.34 4.69 -0.68 2.38 0 0 Z " fill="#0F0E0E" transform="translate(213,45)"/>
<path d="M0 0 C0.33 0.99 0.66 1.98 1 3 C-1 5 -1 5 -3.625 5.125 C-4.40875 5.08375 -5.1925 5.0425 -6 5 C-6 4.01 -6 3.02 -6 2 C-4.02 2 -2.04 2 0 2 C0 1.34 0 0.68 0 0 Z " fill="#1A0000" transform="translate(83,37)"/>
<path d="M0 0 C0.99 0.33 1.98 0.66 3 1 C2.67 1.66 2.34 2.32 2 3 C3.65 3 5.3 3 7 3 C6.34 3.66 5.68 4.32 5 5 C2.375 4.625 2.375 4.625 0 4 C0 2.68 0 1.36 0 0 Z " fill="#780002" transform="translate(259,54)"/>
<path d="M0 0 C0.66 0.99 1.32 1.98 2 3 C5.08365871 3.2502157 5.08365871 3.2502157 8 3 C8 3.66 8 4.32 8 5 C5.03 5 2.06 5 -1 5 C-0.67 3.35 -0.34 1.7 0 0 Z " fill="#AF1E24" transform="translate(235,58)"/>
<path d="M0 0 C0.33 0 0.66 0 1 0 C1 1.65 1 3.3 1 5 C-0.65 5.33 -2.3 5.66 -4 6 C-2.69593116 3.98079663 -1.36176581 1.98075027 0 0 Z " fill="#350100" transform="translate(301,43)"/>
</svg>
