<?xml version="1.0" encoding="UTF-8"?>
<svg version="1.1" xmlns="http://www.w3.org/2000/svg" width="322" height="103">
<path d="M0 0 C106.26 0 212.52 0 322 0 C322 33.99 322 67.98 322 103 C215.74 103 109.48 103 0 103 C0 69.01 0 35.02 0 0 Z " fill="#010102" transform="translate(0,0)"/>
<path d="M0 0 C33.99 0 67.98 0 103 0 C103 25.08 103 50.16 103 76 C69.01 76 35.02 76 0 76 C0 50.92 0 25.84 0 0 Z " fill="#060609" transform="translate(15,14)"/>
<path d="M0 0 C106.26 0 212.52 0 322 0 C322 33.99 322 67.98 322 103 C215.74 103 109.48 103 0 103 C0 69.01 0 35.02 0 0 Z M6 6 C6 36.03 6 66.06 6 97 C108.63 97 211.26 97 317 97 C317 66.97 317 36.94 317 6 C214.37 6 111.74 6 6 6 Z " fill="#FEFEFE" transform="translate(0,0)"/>
<path d="M0 0 C33.99 0 67.98 0 103 0 C103 25.08 103 50.16 103 76 C69.01 76 35.02 76 0 76 C0 50.92 0 25.84 0 0 Z M9 9 C9 28.14 9 47.28 9 67 C37.05 67 65.1 67 94 67 C94 47.86 94 28.72 94 9 C65.95 9 37.9 9 9 9 Z " fill="#F5F6F7" transform="translate(15,14)"/>
<path d="M0 0 C106.26 0 212.52 0 322 0 C322 33.99 322 67.98 322 103 C215.74 103 109.48 103 0 103 C0 69.01 0 35.02 0 0 Z M3 3 C3 35.01 3 67.02 3 100 C107.61 100 212.22 100 320 100 C320 67.99 320 35.98 320 3 C215.39 3 110.78 3 3 3 Z " fill="#000000" transform="translate(0,0)"/>
<path d="M0 0 C0.66 0.99 1.32 1.98 2 3 C2.33 2.34 2.66 1.68 3 1 C6.01490557 -0.00496852 8.04181692 -0.10335303 11.1875 -0.0625 C13.5696875 -0.0315625 13.5696875 -0.0315625 16 0 C16 5.28 16 10.56 16 16 C19.1490712 13.2981424 19.1490712 13.2981424 20 10 C22.07418879 14.26680012 22.2328762 17.77403712 22.1953125 22.48828125 C22.1924826 23.19147995 22.18965271 23.89467865 22.18673706 24.6191864 C22.17560151 26.85046892 22.15050997 29.08134017 22.125 31.3125 C22.1149616 32.83137438 22.10583726 34.3502551 22.09765625 35.86914062 C22.07568413 39.57955921 22.04120047 43.28973942 22 47 C7.58780933 47.17294629 7.58780933 47.17294629 2.1015625 46.50390625 C-5.1064008 45.65775404 -12.3790074 45.89485758 -19.625 45.9375 C-21.12109225 45.94252697 -22.61718613 45.94708775 -24.11328125 45.95117188 C-27.74222219 45.96207815 -31.37110027 45.97927618 -35 46 C-35.33 44.35 -35.66 42.7 -36 41 C-34.02 39.68 -32.04 38.36 -30 37 C-29.01 37.66 -28.02 38.32 -27 39 C-27 39.99 -27 40.98 -27 42 C-23.88794071 40.01487051 -23.88794071 40.01487051 -22.25 36.8125 C-22.1675 36.214375 -22.085 35.61625 -22 35 C-22.99 35 -23.98 35 -25 35 C-25.29869796 29.22517271 -24.85877606 26.14579692 -22 21 C-21.02827065 17.59894727 -20.87855654 15.36433037 -22 12 C-20.68 11.67 -19.36 11.34 -18 11 C-17.566875 9.1128125 -17.566875 9.1128125 -17.125 7.1875 C-16.42696461 4.1460601 -15.79553415 2.69330122 -14 0 C-10.04648451 -1.67264117 -3.77467021 -1.8873351 0 0 Z M-32 42 C-31 44 -31 44 -31 44 Z " fill="#020102" transform="translate(86,33)"/>
<path d="M0 0 C-0.375 2.4375 -0.375 2.4375 -1 5 C-3.37556294 6.18778147 -4.80424159 6.12324578 -7.45449829 6.12025452 C-8.39121872 6.12162918 -9.32793915 6.12300385 -10.29304504 6.12442017 C-11.32378647 6.12082489 -12.35452789 6.11722961 -13.41650391 6.11352539 C-14.49944229 6.11367142 -15.58238068 6.11381744 -16.69813538 6.1139679 C-20.29096453 6.11326915 -23.88374236 6.10547852 -27.4765625 6.09765625 C-29.96235119 6.09579193 -32.44814025 6.0943681 -34.93392944 6.09336853 C-40.81646397 6.08993565 -46.69897943 6.08204773 -52.58150613 6.07201904 C-59.93454246 6.05975492 -67.28758107 6.05437626 -74.640625 6.04882812 C-87.76042609 6.03809268 -100.88021188 6.02120886 -114 6 C-113.67 4.35 -113.34 2.7 -113 1 C-112.01 1 -111.02 1 -110 1 C-109.36920092 0.83840204 -108.73840183 0.67680408 -108.08848763 0.51030922 C-105.85104034 -0.03639738 -103.88558279 -0.14149526 -101.584198 -0.16494751 C-100.26767746 -0.18179848 -100.26767746 -0.18179848 -98.92456055 -0.19898987 C-97.96960693 -0.20631638 -97.01465332 -0.21364288 -96.03076172 -0.22119141 C-95.01901886 -0.2326973 -94.007276 -0.24420319 -92.96487427 -0.25605774 C-89.61984285 -0.29274863 -86.27479233 -0.32238987 -82.9296875 -0.3515625 C-80.60848725 -0.37467569 -78.28728975 -0.39806601 -75.96609497 -0.42172241 C-71.10225794 -0.47016845 -66.23840411 -0.51510406 -61.37451172 -0.55761719 C-55.12851465 -0.61251385 -48.88264608 -0.67633361 -42.63676262 -0.74279213 C-37.84485044 -0.7927676 -33.05290225 -0.83793278 -28.26092911 -0.88163376 C-25.95712946 -0.90324953 -23.65334374 -0.92640427 -21.34957504 -0.9510994 C-18.13655466 -0.98484124 -14.92354413 -1.01209894 -11.71044922 -1.03759766 C-10.75144714 -1.04897263 -9.79244507 -1.0603476 -8.80438232 -1.07206726 C-7.93234161 -1.07766159 -7.0603009 -1.08325592 -6.16183472 -1.08901978 C-5.02199536 -1.09951575 -5.02199536 -1.09951575 -3.85912895 -1.11022377 C-2 -1 -2 -1 0 0 Z " fill="#000104" transform="translate(120,91)"/>
<path d="M0 0 C3.46679688 0.04882812 3.46679688 0.04882812 6.93359375 0.09765625 C6.27359375 3.72765625 5.61359375 7.35765625 4.93359375 11.09765625 C8.23359375 11.09765625 11.53359375 11.09765625 14.93359375 11.09765625 C15.05734375 10.02515625 15.18109375 8.95265625 15.30859375 7.84765625 C15.93359375 4.09765625 15.93359375 4.09765625 17.93359375 0.09765625 C20.90359375 0.09765625 23.87359375 0.09765625 26.93359375 0.09765625 C24.29007377 10.67173617 20.59894128 20.84472522 16.93359375 31.09765625 C13.96359375 31.09765625 10.99359375 31.09765625 7.93359375 31.09765625 C9.80859375 22.47265625 9.80859375 22.47265625 10.93359375 19.09765625 C5.98359375 19.59265625 5.98359375 19.59265625 0.93359375 20.09765625 C-0.38640625 23.72765625 -1.70640625 27.35765625 -3.06640625 31.09765625 C-6.03640625 31.09765625 -9.00640625 31.09765625 -12.06640625 31.09765625 C-10.66875464 24.24284233 -8.74976583 17.71946904 -6.50390625 11.09765625 C-6.02920898 9.66873047 -6.02920898 9.66873047 -5.54492188 8.2109375 C-2.83142187 0.13381011 -2.83142187 0.13381011 0 0 Z " fill="#D60D0F" transform="translate(231.06640625,33.90234375)"/>
<path d="M0 0 C0.66 0.66 1.32 1.32 2 2 C2.33 1.34 2.66 0.68 3 0 C5.64 0 8.28 0 11 0 C9.79589535 3.90402772 8.55741221 7.79631121 7.3125 11.6875 C6.97283203 12.79029297 6.63316406 13.89308594 6.28320312 15.02929688 C4.00347742 22.08153248 2.27323879 26.09560156 -3.90234375 30.29296875 C-6.83226939 31.28052283 -9.47698038 31.30196922 -12.5625 31.3125 C-13.69816406 31.32925781 -14.83382812 31.34601563 -16.00390625 31.36328125 C-19 31 -19 31 -20.921875 29.6484375 C-22 28 -22 28 -21.6875 25.3125 C-21.3471875 24.1678125 -21.3471875 24.1678125 -21 23 C-15.375 22.75 -15.375 22.75 -12 25 C-9.35367713 24.6878236 -9.35367713 24.6878236 -7 24 C-7 23.01 -7 22.02 -7 21 C-8.258125 21.061875 -9.51625 21.12375 -10.8125 21.1875 C-13.37705844 21.16934383 -14.71463773 21.1515987 -17 19.9375 C-18.59885039 16.83972736 -18.34897864 14.43162325 -18 11 C-14.92040736 2.445576 -8.95861083 -1.70213606 0 0 Z " fill="#F5F5F5" transform="translate(209,43)"/>
<path d="M0 0 C2.97 0 5.94 0 9 0 C8.32829194 3.8063457 7.27253436 7.35206816 6 11 C9.63 11 13.26 11 17 11 C17.12375 10.113125 17.2475 9.22625 17.375 8.3125 C17.94412736 5.29612498 18.76614436 2.79673946 20 0 C22.97 0 25.94 0 29 0 C28.23199857 4.35482132 27.00510525 8.53604173 25.6875 12.75 C25.46747314 13.45576172 25.24744629 14.16152344 25.02075195 14.88867188 C23.35781175 20.11317064 21.38368681 25.05605698 19 30 C16.03 30 13.06 30 10 30 C10.66498383 25.61110675 12.18757677 22.0188515 14 18 C10.37 18 6.74 18 3 18 C2.67 19.65 2.34 21.3 2 23 C1.34853151 25.33762223 0.68473395 27.67190457 0 30 C-3.3 30 -6.6 30 -10 30 C-9.33372522 26.17736359 -8.26037893 22.68695622 -6.93359375 19.04296875 C-6.53076172 17.93115234 -6.12792969 16.81933594 -5.71289062 15.67382812 C-5.29201172 14.52333984 -4.87113281 13.37285156 -4.4375 12.1875 C-4.01275391 11.01767578 -3.58800781 9.84785156 -3.15039062 8.64257812 C-2.10344692 5.76054207 -1.05321116 2.87975032 0 0 Z " fill="#DA0D0F" transform="translate(72,35)"/>
<path d="M0 0 C2 2 2 2 2.1875 4.5625 C2 7 2 7 1 8 C-0.51928038 8.07179964 -2.04167482 8.08392007 -3.5625 8.0625 C-4.38878906 8.05347656 -5.21507813 8.04445313 -6.06640625 8.03515625 C-6.70449219 8.02355469 -7.34257813 8.01195312 -8 8 C-8.33 7.01 -8.66 6.02 -9 5 C-10.65 5 -12.3 5 -14 5 C-14 5.99 -14 6.98 -14 8 C-13.09507813 8.25523438 -13.09507813 8.25523438 -12.171875 8.515625 C-3.40491915 11.17399226 -3.40491915 11.17399226 -1 15 C-0.81535179 19.15458467 -2.19279665 21.58389891 -4.6875 24.75 C-8.9436764 29.30803288 -12.97654424 30.078078 -19.0625 30.3125 C-23.14991964 30.23247522 -25.77744681 29.70278655 -29 27 C-30.35439668 24.29120665 -30.06501451 21.99066732 -30 19 C-26.7 19 -23.4 19 -20 19 C-19.67 20.32 -19.34 21.64 -19 23 C-17.35 23 -15.7 23 -14 23 C-13.34 21.68 -12.68 20.36 -12 19 C-13.03060547 18.61908203 -13.03060547 18.61908203 -14.08203125 18.23046875 C-14.98308594 17.88628906 -15.88414063 17.54210937 -16.8125 17.1875 C-17.70582031 16.85105469 -18.59914063 16.51460937 -19.51953125 16.16796875 C-21.94928726 15.02387891 -23.33341825 14.08187882 -25 12 C-25.5 9.6875 -25.5 9.6875 -25 7 C-21.37175409 1.85998496 -18.8149413 -0.33766087 -12.8125 -1.75 C-8.27881383 -2.0472909 -4.2949542 -1.49579871 0 0 Z " fill="#F2F2F2" transform="translate(62,36)"/>
<path d="M0 0 C2.3515625 1.32421875 2.3515625 1.32421875 4 3 C4.25 6.1875 4.25 6.1875 4 9 C1.03 9 -1.94 9 -5 9 C-5.33 8.34 -5.66 7.68 -6 7 C-7.65 7 -9.3 7 -11 7 C-11.33 7.99 -11.66 8.98 -12 10 C-11.39671875 10.10957031 -10.7934375 10.21914063 -10.171875 10.33203125 C-1.30743845 12.09062108 -1.30743845 12.09062108 1 15 C1.66907043 18.47916624 1.70434748 20.78543615 -0.10546875 23.90625 C-3.91212827 28.72325615 -8.02487046 31.51422686 -14.26953125 32.27734375 C-19.02445928 32.47448007 -22.1312884 32.02243094 -26 29 C-27 28 -27 28 -27.0625 24.4375 C-27.041875 23.303125 -27.02125 22.16875 -27 21 C-24.03 21 -21.06 21 -18 21 C-17.67 21.99 -17.34 22.98 -17 24 C-14.69 24 -12.38 24 -10 24 C-10 22.68 -10 21.36 -10 20 C-10.61488281 19.81824219 -11.22976562 19.63648437 -11.86328125 19.44921875 C-12.67152344 19.19785156 -13.47976562 18.94648437 -14.3125 18.6875 C-15.11300781 18.44386719 -15.91351563 18.20023438 -16.73828125 17.94921875 C-19.14687132 16.93835971 -20.39530196 16.04649781 -22 14 C-22.56513402 10.28626215 -22.32842015 8.54315639 -20.375 5.3125 C-14.48702573 -0.42052758 -7.95716561 -1.13040514 0 0 Z " fill="#F7F7F7" transform="translate(157,34)"/>
<path d="M0 0 C1.56041016 -0.03867187 1.56041016 -0.03867187 3.15234375 -0.078125 C6.4289288 0.29131546 7.78672338 0.88752712 10.0625 3.25 C10.39793224 7.00684104 10.25584591 9.66996227 9.0625 13.25 C3.1225 13.25 -2.8175 13.25 -8.9375 13.25 C-8.2775 14.57 -7.6175 15.89 -6.9375 17.25 C-5.9784375 17.0025 -5.9784375 17.0025 -5 16.75 C-0.96163348 16.09067485 2.98057258 16.16996221 7.0625 16.25 C3.42074563 20.08860596 1.4401616 22.09067216 -3.96875 22.453125 C-5.68578125 22.47632813 -5.68578125 22.47632813 -7.4375 22.5 C-8.5821875 22.52578125 -9.726875 22.5515625 -10.90625 22.578125 C-13.9375 22.25 -13.9375 22.25 -15.81640625 20.97265625 C-17.78507393 17.9476303 -17.52856549 14.67298366 -16.9375 11.25 C-12.77236554 3.51475029 -8.77758779 0.13019908 0 0 Z " fill="#F8F8F8" transform="translate(177.9375,42.75)"/>
<path d="M0 0 C0.66 0.99 1.32 1.98 2 3 C2.33 2.34 2.66 1.68 3 1 C6.01490557 -0.00496852 8.04181692 -0.10335303 11.1875 -0.0625 C12.08855469 -0.05347656 12.98960938 -0.04445312 13.91796875 -0.03515625 C14.60503906 -0.02355469 15.29210937 -0.01195312 16 0 C15.85870713 2.41700987 15.71213513 4.83350429 15.5625 7.25 C15.52318359 7.93191406 15.48386719 8.61382812 15.44335938 9.31640625 C15.23333528 12.64448041 14.98065998 15.80255402 14 19 C13.34 19 12.68 19 12 19 C11.814375 20.0209375 11.814375 20.0209375 11.625 21.0625 C9.59504132 30.60330579 9.59504132 30.60330579 6 33 C3.30078125 33.1953125 3.30078125 33.1953125 0.3125 33.125 C-0.68136719 33.10695312 -1.67523438 33.08890625 -2.69921875 33.0703125 C-3.83810547 33.03550781 -3.83810547 33.03550781 -5 33 C-5 29.7 -5 26.4 -5 23 C-6.98 23.33 -8.96 23.66 -11 24 C-11.13277344 24.71027344 -11.26554687 25.42054687 -11.40234375 26.15234375 C-11.66724609 27.53099609 -11.66724609 27.53099609 -11.9375 28.9375 C-12.11152344 29.85402344 -12.28554687 30.77054688 -12.46484375 31.71484375 C-13 34 -13 34 -14 35 C-15.85287502 35.07226502 -17.70833878 35.0838122 -19.5625 35.0625 C-20.57441406 35.05347656 -21.58632812 35.04445312 -22.62890625 35.03515625 C-23.41136719 35.02355469 -24.19382813 35.01195312 -25 35 C-25.29869796 29.22517271 -24.85877606 26.14579692 -22 21 C-21.02827065 17.59894727 -20.87855654 15.36433037 -22 12 C-20.68 11.67 -19.36 11.34 -18 11 C-17.71125 9.741875 -17.4225 8.48375 -17.125 7.1875 C-16.42696461 4.1460601 -15.79553415 2.69330122 -14 0 C-10.04648451 -1.67264117 -3.77467021 -1.8873351 0 0 Z M-14 2 C-15.4304204 5.78795106 -16.8543979 9.57825448 -18.27246094 13.37084961 C-18.75572265 14.66057458 -19.24073669 15.94964438 -19.72753906 17.23803711 C-20.42713915 19.09054958 -21.11991233 20.94563569 -21.8125 22.80078125 C-22.23144531 23.91622314 -22.65039062 25.03166504 -23.08203125 26.1809082 C-24.15481207 28.98129882 -24.15481207 28.98129882 -24 32 C-20.7 32 -17.4 32 -14 32 C-13.505 30.576875 -13.01 29.15375 -12.5 27.6875 C-12.2215625 26.88699219 -11.943125 26.08648437 -11.65625 25.26171875 C-10.86066893 22.91230578 -10.86066893 22.91230578 -11 20 C-7.37 20 -3.74 20 0 20 C-1.04166667 22.24609375 -2.08333333 24.4921875 -3.125 26.73828125 C-4.18040667 29.06213959 -4.18040667 29.06213959 -4 32 C-1.03 32 1.94 32 5 32 C9.77092997 22.41903407 13.0287279 12.52659304 15 2 C12.03 2 9.06 2 6 2 C5.505 3.0725 5.01 4.145 4.5 5.25 C4.2215625 5.85328125 3.943125 6.4565625 3.65625 7.078125 C2.78457076 9.29242836 2.78457076 9.29242836 3 13 C-0.63 13 -4.26 13 -8 13 C-7.21875 11.01432292 -6.4375 9.02864583 -5.65625 7.04296875 C-4.8470838 4.88158784 -4.8470838 4.88158784 -5 2 C-7.97 2 -10.94 2 -14 2 Z " fill="#380101" transform="translate(86,33)"/>
<path d="M0 0 C1.56041016 -0.03867187 1.56041016 -0.03867187 3.15234375 -0.078125 C6.45903196 0.29470964 7.85252172 0.76041376 10.0625 3.25 C10.30246264 6.71309717 9.60114496 9.79369481 9.0625 13.25 C3.1225 13.25 -2.8175 13.25 -8.9375 13.25 C-8.6075 14.57 -8.2775 15.89 -7.9375 17.25 C-6.7309375 17.0025 -6.7309375 17.0025 -5.5 16.75 C-1.27862648 16.15752652 2.80914545 16.16493291 7.0625 16.25 C3.54806884 20.01546196 1.13517392 22.02746572 -4.06640625 22.5859375 C-5.19949219 22.59882812 -6.33257812 22.61171875 -7.5 22.625 C-8.63566406 22.65335938 -9.77132813 22.68171875 -10.94140625 22.7109375 C-13.9375 22.25 -13.9375 22.25 -15.83203125 20.4921875 C-17.75288383 16.59618262 -17.26449787 13.31061347 -15.9375 9.25 C-11.56153047 2.59674021 -8.01111908 0.11882995 0 0 Z " fill="#D10D0F" transform="translate(272.9375,42.75)"/>
<path d="M0 0 C0.84062397 3.09773244 1.08935201 5.78332751 1 9 C1.66 8.67 2.32 8.34 3 8 C3.66 8.33 4.32 8.66 5 9 C5.33 7.68 5.66 6.36 6 5 C8.41734542 4.91882049 10.83194949 4.85943074 13.25 4.8125 C13.93191406 4.78736328 14.61382812 4.76222656 15.31640625 4.73632812 C18.59199289 4.68862541 20.65348556 4.78914924 23.484375 6.51171875 C23.98453125 7.00285156 24.4846875 7.49398437 25 8 C24.67 8.66 24.34 9.32 24 10 C23.34 9.34 22.68 8.68 22 8 C19.27444654 7.64119137 19.27444654 7.64119137 16.1875 7.6875 C15.14980469 7.67074219 14.11210937 7.65398438 13.04296875 7.63671875 C8.55796092 8.17215614 5.98012284 10.07432843 2.75 13.125 C0.44551998 16.91093146 -0.24882432 20.57092711 0 25 C0.66 25.99 1.32 26.98 2 28 C5.11610554 28.58592634 5.11610554 28.58592634 8.625 28.6875 C9.81351562 28.75324219 11.00203125 28.81898437 12.2265625 28.88671875 C13.14179688 28.92410156 14.05703125 28.96148437 15 29 C13 31 13 31 10.13671875 31.23046875 C8.99847656 31.21628906 7.86023438 31.20210937 6.6875 31.1875 C4.99173828 31.17783203 4.99173828 31.17783203 3.26171875 31.16796875 C0 31 0 31 -2.66796875 30.36328125 C-5.53932623 29.91598436 -6.47187329 30.69674088 -9 32 C-11.578125 31.9765625 -11.578125 31.9765625 -14.25 31.625 C-15.14203125 31.51414062 -16.0340625 31.40328125 -16.953125 31.2890625 C-17.62859375 31.19367188 -18.3040625 31.09828125 -19 31 C-18.505 29.515 -18.505 29.515 -18 28 C-15.03 28.33 -12.06 28.66 -9 29 C-8.85304687 28.33097656 -8.70609375 27.66195312 -8.5546875 26.97265625 C-6.39352136 17.71938745 -3.26151852 8.90848425 0 0 Z " fill="#380001" transform="translate(257,36)"/>
<path d="M0 0 C2.64 0 5.28 0 8 0 C8 0.66 8 1.32 8 2 C8.99 1.34 9.98 0.68 11 0 C14.1875 -0.125 14.1875 -0.125 17 0 C16 2 15 4 14 6 C11.67843403 6.40729228 9.3431213 6.74438677 7 7 C6.731875 7.804375 6.46375 8.60875 6.1875 9.4375 C4.79166667 13.625 3.39583333 17.8125 2 22 C-0.64 22 -3.28 22 -6 22 C-5.52960495 14.16008251 -2.77062812 7.27928865 0 0 Z " fill="#CE1015" transform="translate(290,43)"/>
<path d="M0 0 C0.66 0 1.32 0 2 0 C-1.44310894 13.94337023 -1.44310894 13.94337023 -6.875 18.3125 C-12.05322483 21.04606933 -18.33040887 20.85043867 -24 20 C-25.91015625 18.640625 -25.91015625 18.640625 -27 17 C-26.6875 14.3125 -26.6875 14.3125 -26 12 C-20.375 11.75 -20.375 11.75 -17 14 C-14.35367713 13.6878236 -14.35367713 13.6878236 -12 13 C-11.79375 12.05125 -11.5875 11.1025 -11.375 10.125 C-10 7 -10 7 -7 5.5625 C-4 5 -4 5 -2 6 C-2 5.34 -2 4.68 -2 4 C-2.66 3.67 -3.32 3.34 -4 3 C-3.34 2.34 -2.68 1.68 -2 1 C-1.67 1.33 -1.34 1.66 -1 2 C-0.67 1.34 -0.34 0.68 0 0 Z " fill="#FBFCFB" transform="translate(214,54)"/>
<path d="M0 0 C1.32 0 2.64 0 4 0 C4.33 3.3 4.66 6.6 5 10 C7.31 10.33 9.62 10.66 12 11 C12 11.99 12 12.98 12 14 C11.38511719 14.03738281 10.77023438 14.07476562 10.13671875 14.11328125 C8.92435547 14.21189453 8.92435547 14.21189453 7.6875 14.3125 C6.88699219 14.37050781 6.08648437 14.42851563 5.26171875 14.48828125 C2.51965181 15.10867981 1.65991051 15.7472643 0 18 C-0.99988926 20.49018012 -0.99988926 20.49018012 -1.6875 23.1875 C-1.93886719 24.08855469 -2.19023437 24.98960938 -2.44921875 25.91796875 C-2.63097656 26.60503906 -2.81273437 27.29210937 -3 28 C-4.98 28 -6.96 28 -9 28 C-8.49247107 25.20859087 -7.86385697 22.53711369 -7.0625 19.8125 C-5.79051512 15.24831896 -4.8800393 10.65297376 -4 6 C-3.34 6 -2.68 6 -2 6 C-1.855625 5.195625 -1.71125 4.39125 -1.5625 3.5625 C-1 1 -1 1 0 0 Z " fill="#F20505" transform="translate(230,36)"/>
<path d="M0 0 C0.99 0 1.98 0 3 0 C1.47536437 7.49612516 -0.68006154 14.71359134 -3 22 C-0.36 22 2.28 22 5 22 C5.66 19.03 6.32 16.06 7 13 C7.33 13 7.66 13 8 13 C8 15.97 8 18.94 8 22 C4.18957754 23.90521123 2.90806147 24.25371444 -1.125 24.1875 C-1.99382812 24.18105469 -2.86265625 24.17460938 -3.7578125 24.16796875 C-6 24 -6 24 -8 23 C-8 22.34 -8 21.68 -8 21 C-10.31 21.33 -12.62 21.66 -15 22 C-12.702779 20.25728062 -10.40133271 18.60088848 -8 17 C-12.8333472 16.91666643 -17.23692563 17.04738513 -22 18 C-22.33 16.35 -22.66 14.7 -23 13 C-17.06 13 -11.12 13 -5 13 C-4.67 9.7 -4.34 6.4 -4 3 C-3.34 3 -2.68 3 -2 3 C-2 3.99 -2 4.98 -2 6 C-1.34 6 -0.68 6 0 6 C0 4.02 0 2.04 0 0 Z " fill="#2C0101" transform="translate(287,43)"/>
<path d="M0 0 C0.3449145 1.33038449 0.67516582 2.66457061 1 4 C1.2371875 4.6909375 1.474375 5.381875 1.71875 6.09375 C2.13767248 10.42261561 0.59732028 13.80584661 -0.9375 17.8125 C-1.22818359 18.60076172 -1.51886719 19.38902344 -1.81835938 20.20117188 C-2.53449049 22.13824784 -3.26576721 24.06971265 -4 26 C-1.03 26 1.94 26 5 26 C5.103125 25.319375 5.20625 24.63875 5.3125 23.9375 C6.14725019 20.37084011 7.49472754 17.33777806 9 14 C12.3 14 15.6 14 19 14 C18.34 16.97 17.68 19.94 17 23 C16 19 16 19 17 16 C14.69 16 12.38 16 10 16 C9.87625 16.70125 9.7525 17.4025 9.625 18.125 C8.95731453 21.19635318 8.13303617 24.0674358 7 27 C4.23547967 28.38226016 1.9538637 28.09525387 -1.125 28.0625 C-2.22070312 28.05347656 -3.31640625 28.04445313 -4.4453125 28.03515625 C-5.70988281 28.01775391 -5.70988281 28.01775391 -7 28 C-8 26 -8 26 -7.44140625 23.8984375 C-7.15136719 23.06570312 -6.86132812 22.23296875 -6.5625 21.375 C-5.05400998 16.65840904 -4.82736461 12.92010867 -5 8 C-4.67 7.01 -4.34 6.02 -4 5 C-6.31 4.67 -8.62 4.34 -11 4 C-11 3.67 -11 3.34 -11 3 C-10.28972656 2.86722656 -9.57945312 2.73445313 -8.84765625 2.59765625 C-7.92855469 2.42105469 -7.00945312 2.24445312 -6.0625 2.0625 C-4.68771484 1.80146484 -4.68771484 1.80146484 -3.28515625 1.53515625 C-1.04710156 1.22285012 -1.04710156 1.22285012 0 0 Z " fill="#250000" transform="translate(223,39)"/>
<path d="M0 0 C1.32 0.33 2.64 0.66 4 1 C4.02465288 5.68139254 4.04283739 10.36274759 4.05493164 15.04418945 C4.05997157 16.63794614 4.0668035 18.23169819 4.07543945 19.82543945 C4.08751999 22.11150253 4.09323155 24.39750467 4.09765625 26.68359375 C4.10281754 27.40026718 4.10797882 28.11694061 4.11329651 28.85533142 C4.11349263 30.57063672 4.06192007 32.28581266 4 34 C3.505 34.495 3.505 34.495 3 35 C2.768169 37.95360694 2.59609469 40.88907197 2.46484375 43.84765625 C2.42186661 44.7340831 2.37888947 45.62050995 2.33460999 46.53379822 C2.19780965 49.37650768 2.06758864 52.21947624 1.9375 55.0625 C1.84613497 56.98504661 1.75434375 58.90757302 1.66210938 60.83007812 C1.43645267 65.55316482 1.21669773 70.27649412 1 75 C0.67 75 0.34 75 0 75 C0 50.25 0 25.5 0 0 Z " fill="#0F101B" transform="translate(118,15)"/>
<path d="M0 0 C0.66 0 1.32 0 2 0 C2 4.29 2 8.58 2 13 C3.98 12.67 5.96 12.34 8 12 C9.62394748 11.9379225 11.25005297 11.91287959 12.875 11.9375 C14.04675781 11.95103516 14.04675781 11.95103516 15.2421875 11.96484375 C15.82226562 11.97644531 16.40234375 11.98804688 17 12 C13.46871609 15.78351848 11.08657261 17.82483094 5.8359375 18.265625 C4.69382812 18.26046875 3.55171875 18.2553125 2.375 18.25 C1.22773438 18.25515625 0.08046875 18.2603125 -1.1015625 18.265625 C-4 18 -4 18 -6 16 C-6.89601942 9.59986129 -4.682605 5.95038705 -1 1 C-0.67 0.67 -0.34 0.34 0 0 Z " fill="#F40505" transform="translate(263,47)"/>
<path d="M0 0 C2.97 0 5.94 0 9 0 C8.23199857 4.35482132 7.00510525 8.53604173 5.6875 12.75 C5.46747314 13.45576172 5.24744629 14.16152344 5.02075195 14.88867188 C3.35781175 20.11317064 1.38368681 25.05605698 -1 30 C-3.97 30 -6.94 30 -10 30 C-9.33501617 25.61110675 -7.81242323 22.0188515 -6 18 C-5.67 18 -5.34 18 -5 18 C-5 21.3 -5 24.6 -5 28 C-4.34 28 -3.68 28 -3 28 C-2.27440459 23.243319 -1.89052565 19.715266 -3 15 C-2.67 14.34 -2.34 13.68 -2 13 C-0.02 13 1.96 13 4 13 C4 10.36 4 7.72 4 5 C4.66 5 5.32 5 6 5 C6 4.01 6 3.02 6 2 C4.35 2 2.7 2 1 2 C0.01 4.97 -0.98 7.94 -2 11 C-3.28485596 5.86057616 -2.22194431 4.62164416 0 0 Z " fill="#F20504" transform="translate(92,35)"/>
<path d="M0 0 C2.97 0 5.94 0 9 0 C8.34 3.63 7.68 7.26 7 11 C10.3 11 13.6 11 17 11 C17.12375 9.9275 17.2475 8.855 17.375 7.75 C18 4 18 4 20 0 C22.97 0 25.94 0 29 0 C27.3186083 6.48707154 25.46937673 12.7677635 23 19 C22.67 19 22.34 19 22 19 C21.957279 17.33388095 21.95936168 15.66617115 22 14 C22.33 13.67 22.66 13.34 23 13 C23.23287008 11.31816052 23.41264166 9.6287584 23.5625 7.9375 C23.64628906 7.01839844 23.73007813 6.09929688 23.81640625 5.15234375 C23.90728516 4.08693359 23.90728516 4.08693359 24 3 C23.01 3 22.02 3 21 3 C20.67 5.31 20.34 7.62 20 10 C19.34 10 18.68 10 18 10 C17.67 10.99 17.34 11.98 17 13 C15.18757948 13.02687279 13.37504767 13.04633715 11.5625 13.0625 C10.55316406 13.07410156 9.54382813 13.08570313 8.50390625 13.09765625 C6 13 6 13 5 12 C4.92794489 10.31391034 4.91613932 8.62499341 4.9375 6.9375 C4.94652344 6.01839844 4.95554688 5.09929688 4.96484375 4.15234375 C4.97644531 3.44207031 4.98804688 2.73179688 5 2 C3.03028196 2.30464127 3.03028196 2.30464127 1 3 C-0.29660434 5.49034386 -0.29660434 5.49034386 -1 8 C-1.625 6.25 -1.625 6.25 -2 4 C-1.34 2.68 -0.68 1.36 0 0 Z " fill="#DD0D0F" transform="translate(229,34)"/>
<path d="M0 0 C1.4321146 2.8642292 0.53266189 4.45581499 -0.3125 7.5 C-0.70888672 8.96953125 -0.70888672 8.96953125 -1.11328125 10.46875 C-2 13 -2 13 -4 15 C-6.625 15.125 -6.625 15.125 -9 15 C-9.66 12.69 -10.32 10.38 -11 8 C-12.65 8.33 -14.3 8.66 -16 9 C-15.76066439 5.7689692 -14.72646062 4.69910669 -12.5 2.25 C-8.6327178 -0.83439337 -4.72978358 -0.47297836 0 0 Z " fill="#F2F2F2" transform="translate(209,43)"/>
<path d="M0 0 C-0.474375 0.598125 -0.94875 1.19625 -1.4375 1.8125 C-3.70053871 4.9807542 -4.08638168 7.29286001 -3.875 11.0625 C-3.91625 12.361875 -3.9575 13.66125 -4 15 C-4.99 15.66 -5.98 16.32 -7 17 C-7.66 16.34 -8.32 15.68 -9 15 C-12.86426113 12.42382592 -15.49406865 12.49832748 -20 13 C-20.94875 13.20625 -21.8975 13.4125 -22.875 13.625 C-23.57625 13.74875 -24.2775 13.8725 -25 14 C-25.66 13.34 -26.32 12.68 -27 12 C-27 11.01 -27 10.02 -27 9 C-21.06 9 -15.12 9 -9 9 C-8.67 6.69 -8.34 4.38 -8 2 C-4.86024789 -0.64400178 -3.96767419 -1.32255806 0 0 Z " fill="#050505" transform="translate(196,47)"/>
<path d="M0 0 C1.65 0 3.3 0 5 0 C5 0.99 5 1.98 5 3 C4.34 3 3.68 3 3 3 C3 5.64 3 8.28 3 11 C0 12 0 12 -3 11 C-2.90460938 11.83144531 -2.80921875 12.66289063 -2.7109375 13.51953125 C-2.60007812 14.60621094 -2.48921875 15.69289063 -2.375 16.8125 C-2.25898437 17.89144531 -2.14296875 18.97039063 -2.0234375 20.08203125 C-2 23 -2 23 -4 26 C-4.66 26 -5.32 26 -6 26 C-6.33 22.04 -6.66 18.08 -7 14 C-9.64 14 -12.28 14 -15 14 C-14.67 12.68 -14.34 11.36 -14 10 C-9.545 10.99 -9.545 10.99 -5 12 C-5 11.01 -5 10.02 -5 9 C-4.34 9 -3.68 9 -3 9 C-2.01 6.03 -1.02 3.06 0 0 Z " fill="#F70404" transform="translate(93,37)"/>
<path d="M0 0 C1.65 0.33 3.3 0.66 5 1 C4.67 2.32 4.34 3.64 4 5 C3.34 5 2.68 5 2 5 C2.20367187 5.67546875 2.40734375 6.3509375 2.6171875 7.046875 C3.11317052 10.87302973 2.24132516 13.56997638 1.125 17.25 C0.57199219 19.11398438 0.57199219 19.11398438 0.0078125 21.015625 C-1 24 -1 24 -2 25 C-3.66617115 25.04063832 -5.33388095 25.042721 -7 25 C-6.68524057 17.60315332 -4.99863852 11.73279215 -2 5 C-1.32731798 3.33575209 -0.65901681 1.66970628 0 0 Z " fill="#F40505" transform="translate(72,39)"/>
<path d="M0 0 C1.65 0 3.3 0 5 0 C5.33 1.32 5.66 2.64 6 4 C10.29 3.34 14.58 2.68 19 2 C19 2.66 19 3.32 19 4 C18.01 4.495 18.01 4.495 17 5 C16.67 5.99 16.34 6.98 16 8 C16.66 8.33 17.32 8.66 18 9 C16.47275469 15.39456368 15.18720934 19.79415459 10 24 C9.01 23.34 8.02 22.68 7 22 C7.639375 21.29875 8.27875 20.5975 8.9375 19.875 C11.19981316 16.72147257 11.91603056 14.86259426 12 11 C9.79018188 8.09040614 7.17304523 7.07815989 3.8125 5.8125 C2.91144531 5.46832031 2.01039062 5.12414063 1.08203125 4.76953125 C0.39496094 4.51558594 -0.29210938 4.26164062 -1 4 C-0.67 2.68 -0.34 1.36 0 0 Z " fill="#100D0D" transform="translate(48,40)"/>
<path d="M0 0 C3.6875 0.25 3.6875 0.25 6.125 1.3125 C8.48525694 4.23921861 8.01280717 6.60655971 7.6875 10.25 C7.3575 11.24 7.0275 12.23 6.6875 13.25 C2.0675 13.25 -2.5525 13.25 -7.3125 13.25 C-6.6525 11.93 -5.9925 10.61 -5.3125 9.25 C-3.6625 9.25 -2.0125 9.25 -0.3125 9.25 C-0.3125 7.6 -0.3125 5.95 -0.3125 4.25 C-1.3025 4.25 -2.2925 4.25 -3.3125 4.25 C-3.6425 3.26 -3.9725 2.27 -4.3125 1.25 C-3.3125 0.25 -3.3125 0.25 0 0 Z " fill="#FAFAFA" transform="translate(180.3125,42.75)"/>
<path d="M0 0 C0 3.3 0 6.6 0 10 C-1.65 10 -3.3 10 -5 10 C-4.67 7.36 -4.34 4.72 -4 2 C-7.3 2 -10.6 2 -14 2 C-14.18175781 2.70125 -14.36351563 3.4025 -14.55078125 4.125 C-16.07999067 9.89678529 -17.80054363 15.44899107 -20 21 C-20.33 21 -20.66 21 -21 21 C-20.979375 20.2575 -20.95875 19.515 -20.9375 18.75 C-20.99328688 16.29537721 -21.3069904 14.33890739 -22 12 C-20.68 11.67 -19.36 11.34 -18 11 C-17.71125 9.741875 -17.4225 8.48375 -17.125 7.1875 C-16.42696461 4.1460601 -15.79553415 2.69330122 -14 0 C-10.04648451 -1.67264117 -3.77467021 -1.8873351 0 0 Z " fill="#030102" transform="translate(86,33)"/>
<path d="M0 0 C1.216875 0.61875 2.43375 1.2375 3.6875 1.875 C6.74302738 3.4054773 9.79706968 4.79890113 13 6 C12.67 7.65 12.34 9.3 12 11 C9.69 11 7.38 11 5 11 C4.67 9.68 4.34 8.36 4 7 C1.03 7 -1.94 7 -5 7 C-3.35 4.69 -1.7 2.38 0 0 Z " fill="#0A0A0A" transform="translate(135,48)"/>
<path d="M0 0 C2.97 0 5.94 0 9 0 C10 8.875 10 8.875 10 10 C3.65492958 10.35915493 3.65492958 10.35915493 1.0625 8.9375 C-0.55479605 5.98831309 -0.18630138 3.29132441 0 0 Z " fill="#F8F8F8" transform="translate(130,55)"/>
<path d="M0 0 C0.99 0.33 1.98 0.66 3 1 C3 1.66 3 2.32 3 3 C3.66 3 4.32 3 5 3 C5.99 4.485 5.99 4.485 7 6 C10.11610554 6.58592634 10.11610554 6.58592634 13.625 6.6875 C14.81351562 6.75324219 16.00203125 6.81898437 17.2265625 6.88671875 C18.14179688 6.92410156 19.05703125 6.96148437 20 7 C18 9 18 9 15.13671875 9.23046875 C13.99847656 9.21628906 12.86023438 9.20210937 11.6875 9.1875 C9.99173828 9.17783203 9.99173828 9.17783203 8.26171875 9.16796875 C5 9 5 9 2.33203125 8.36328125 C-0.53932623 7.91598436 -1.47187329 8.69674088 -4 10 C-6.578125 9.9765625 -6.578125 9.9765625 -9.25 9.625 C-10.14203125 9.51414062 -11.0340625 9.40328125 -11.953125 9.2890625 C-12.62859375 9.19367188 -13.3040625 9.09828125 -14 9 C-14 8.67 -14 8.34 -14 8 C-8.06 7.505 -8.06 7.505 -2 7 C-1.34 4.69 -0.68 2.38 0 0 Z " fill="#250101" transform="translate(252,58)"/>
<path d="M0 0 C2.45840605 -0.02691685 4.91651882 -0.04679802 7.375 -0.0625 C8.07367188 -0.07087891 8.77234375 -0.07925781 9.4921875 -0.08789062 C14.7734375 -0.11328125 14.7734375 -0.11328125 17 1 C17.35820896 7.32835821 17.35820896 7.32835821 16 9.875 C12.8045594 11.67243534 9.63526893 11.70202714 6 12 C5.67 12.99 5.34 13.98 5 15 C4 13 4 13 4.5 10.9375 C6.76508984 8.01175896 9.45333736 8.50666609 13 8 C14.46804363 6.14853436 14.46804363 6.14853436 15 4 C15.33 3.34 15.66 2.68 16 2 C13.03 2.66 10.06 3.32 7 4 C7 3.34 7 2.68 7 2 C4.36 2 1.72 2 -1 2 C-0.67 1.34 -0.34 0.68 0 0 Z " fill="#400102" transform="translate(291,41)"/>
<path d="M0 0 C0 0.33 0 0.66 0 1 C-4.455 1.495 -4.455 1.495 -9 2 C-9.99 5.3 -10.98 8.6 -12 12 C-15.3 12 -18.6 12 -22 12 C-21.67 9.36 -21.34 6.72 -21 4 C-20.67 5.32 -20.34 6.64 -20 8 C-19.34 8 -18.68 8 -18 8 C-17.01 8.33 -16.02 8.66 -15 9 C-15.33 6.69 -15.66 4.38 -16 2 C-10.60539047 -0.27141454 -5.73842251 -0.20413361 0 0 Z " fill="#2A0001" transform="translate(258,33)"/>
<path d="M0 0 C2.97 0 5.94 0 9 0 C8.2264561 4.4500503 6.92250368 8.70191257 5.5625 13 C5.34529297 13.69867188 5.12808594 14.39734375 4.90429688 15.1171875 C3.74346359 18.81233249 2.50113611 22.42520145 1 26 C-0.37432457 22.18243176 0.32024961 18.92744671 1 15 C1.66 15 2.32 15 3 15 C3.33 11.7 3.66 8.4 4 5 C4.66 5 5.32 5 6 5 C6 4.01 6 3.02 6 2 C4.35 2 2.7 2 1 2 C0.01 4.97 -0.98 7.94 -2 11 C-3.28485596 5.86057616 -2.22194431 4.62164416 0 0 Z " fill="#C81214" transform="translate(92,35)"/>
<path d="M0 0 C0.66 0 1.32 0 2 0 C2.34548714 6.33393082 1.29342747 11.10261508 -1 17 C-2.65 17 -4.3 17 -6 17 C-5.67 15.02 -5.34 13.04 -5 11 C-4.34 11 -3.68 11 -3 11 C-3 8.69 -3 6.38 -3 4 C-2.34 4 -1.68 4 -1 4 C-0.67 2.68 -0.34 1.36 0 0 Z " fill="#F50403" transform="translate(292,46)"/>
<path d="M0 0 C1.56041016 -0.03867187 1.56041016 -0.03867187 3.15234375 -0.078125 C6.45903196 0.29470964 7.85252172 0.76041376 10.0625 3.25 C10.30246264 6.71309717 9.60114496 9.79369481 9.0625 13.25 C3.1225 13.25 -2.8175 13.25 -8.9375 13.25 C-8.2775 11.93 -7.6175 10.61 -6.9375 9.25 C-4.2975 9.25 -1.6575 9.25 1.0625 9.25 C-0.9175 10.24 -0.9175 10.24 -2.9375 11.25 C0.6925 11.58 4.3225 11.91 8.0625 12.25 C8.01328772 6.98338034 8.01328772 6.98338034 5.5 2.75 C0.27770411 1.67875982 -4.79282887 1.96383222 -9.9375 3.25 C-8.00237586 -0.62024828 -3.85945058 0.05724772 0 0 Z " fill="#BA1618" transform="translate(272.9375,42.75)"/>
<path d="M0 0 C-1.485 2.475 -1.485 2.475 -3 5 C-2.34 5.33 -1.68 5.66 -1 6 C-4.28696233 6.79953138 -5.71023192 7.09658936 -9 6 C-9.99 6.66 -10.98 7.32 -12 8 C-12 9.32 -12 10.64 -12 12 C-13.98 12.99 -13.98 12.99 -16 14 C-16.33770059 10.36971871 -16.28595853 8.47293141 -14.375 5.3125 C-9.95852932 1.01225223 -6.13971179 -0.43855084 0 0 Z " fill="#E9E9E9" transform="translate(151,34)"/>
<path d="M0 0 C4.875 1.875 4.875 1.875 6 3 C6.14115161 5.67058851 6.04247107 8.32432238 6 11 C2.37 11 -1.26 11 -5 11 C-5.33 10.34 -5.66 9.68 -6 9 C-4.35 8.67 -2.7 8.34 -1 8 C-1.020625 7.05125 -1.04125 6.1025 -1.0625 5.125 C-1 2 -1 2 0 0 Z " fill="#EE0707" transform="translate(275,44)"/>
<path d="M0 0 C0.56203125 0.29648437 1.1240625 0.59296875 1.703125 0.8984375 C4.01967305 2.00943503 6.30709092 2.83464706 8.75 3.625 C9.54921875 3.88539062 10.3484375 4.14578125 11.171875 4.4140625 C11.77515625 4.60742188 12.3784375 4.80078125 13 5 C13 6.32 13 7.64 13 9 C11 11 11 11 8.375 11.125 C7.59125 11.08375 6.8075 11.0425 6 11 C5.9175 10.21625 5.835 9.4325 5.75 8.625 C5.5025 7.75875 5.255 6.8925 5 6 C3.68352881 5.30062468 2.34977849 4.63270867 1 4 C0.25 1.875 0.25 1.875 0 0 Z " fill="#090909" transform="translate(37,49)"/>
<path d="M0 0 C0.99 0 1.98 0 3 0 C2.40670188 4.84526798 1.35106007 9.31632511 0 14 C0 14.99 0 15.98 0 17 C-0.66 17 -1.32 17 -2 17 C-2 16.34 -2 15.68 -2 15 C-3.32 15 -4.64 15 -6 15 C-6.36625971 10.48279689 -6.36625971 10.48279689 -4.625 8.1875 C-3 7 -3 7 -1 7 C-0.67 4.69 -0.34 2.38 0 0 Z " fill="#F80202" transform="translate(250,37)"/>
<path d="M0 0 C3.83225427 -0.08912219 7.26562152 0.12132271 11 1 C11.33 1.99 11.66 2.98 12 4 C6.4477112 6.8352113 2.19887485 7.37952295 -4 7 C-3.51917969 6.55011719 -3.03835937 6.10023437 -2.54296875 5.63671875 C-0.78745983 3.77454599 -0.42874896 2.48674399 0 0 Z " fill="#E4E4E4" transform="translate(140,59)"/>
<path d="M0 0 C3.3 0 6.6 0 10 0 C9.34 2.97 8.68 5.94 8 9 C7 5 7 5 8 2 C5.69 2 3.38 2 1 2 C0.87625 2.70125 0.7525 3.4025 0.625 4.125 C-0.03838345 7.17656387 -0.97211955 10.05340938 -2 13 C-5.63 13 -9.26 13 -13 13 C-13 12.67 -13 12.34 -13 12 C-10.03 12 -7.06 12 -4 12 C-3.8453125 10.9790625 -3.8453125 10.9790625 -3.6875 9.9375 C-2.85274981 6.37084011 -1.50527246 3.33777806 0 0 Z " fill="#470101" transform="translate(232,53)"/>
<path d="M0 0 C0.66 0 1.32 0 2 0 C-0.70615034 11.70615034 -0.70615034 11.70615034 -5 16 C-5.28875 14.865625 -5.5775 13.73125 -5.875 12.5625 C-6.24625 11.386875 -6.6175 10.21125 -7 9 C-7.66 8.67 -8.32 8.34 -9 8 C-9.33 8.66 -9.66 9.32 -10 10 C-10 9.01 -10 8.02 -10 7 C-8.02253397 6.26919734 -6.01927511 5.60578253 -4 5 C-3.34 5.33 -2.68 5.66 -2 6 C-2 5.34 -2 4.68 -2 4 C-2.66 3.67 -3.32 3.34 -4 3 C-3.34 2.34 -2.68 1.68 -2 1 C-1.67 1.33 -1.34 1.66 -1 2 C-0.67 1.34 -0.34 0.68 0 0 Z " fill="#EBECEC" transform="translate(214,54)"/>
<path d="M0 0 C1.65 0 3.3 0 5 0 C5 1.32 5 2.64 5 4 C5.99 4 6.98 4 8 4 C8 5.65 8 7.3 8 9 C5.03 9 2.06 9 -1 9 C-1 2 -1 2 0 0 Z " fill="#E7E7E7" transform="translate(172,43)"/>
<path d="M0 0 C2.97 0 5.94 0 9 0 C8.34 3.63 7.68 7.26 7 11 C9.97 11 12.94 11 16 11 C16 11.33 16 11.66 16 12 C12.37 12 8.74 12 5 12 C5 8.7 5 5.4 5 2 C3.68 2.33 2.36 2.66 1 3 C-0.29660434 5.49034386 -0.29660434 5.49034386 -1 8 C-1.625 6.25 -1.625 6.25 -2 4 C-1.34 2.68 -0.68 1.36 0 0 Z " fill="#B51011" transform="translate(229,34)"/>
<path d="M0 0 C2.625 0.375 2.625 0.375 5 1 C4.25 6.75 4.25 6.75 2 9 C-0.625 9.125 -0.625 9.125 -3 9 C-2.25 2.25 -2.25 2.25 0 0 Z " fill="#0B0B0B" transform="translate(203,49)"/>
<path d="M0 0 C0.66 0.33 1.32 0.66 2 1 C3.91500303 1.15898854 3.91500303 1.15898854 6 1.125 C6.70125 1.12757812 7.4025 1.13015625 8.125 1.1328125 C10.09153775 1.11377236 10.09153775 1.11377236 12 0 C11.25 4.75 11.25 4.75 9 7 C6.875 6.75 6.875 6.75 4 6 C2.56262577 5.64532324 1.12511983 5.29117992 -0.3125 4.9375 C-2.1378125 4.4734375 -2.1378125 4.4734375 -4 4 C-2.68 2.68 -1.36 1.36 0 0 Z " fill="#181818" transform="translate(192,62)"/>
<path d="M0 0 C5.61 0 11.22 0 17 0 C13.22705932 3.77294068 10.18393856 4.36449089 5 5 C1.9375 4.625 1.9375 4.625 0 4 C0 2.68 0 1.36 0 0 Z " fill="#4C0000" transform="translate(264,56)"/>
<path d="M0 0 C1.22589844 0.01353516 1.22589844 0.01353516 2.4765625 0.02734375 C3.41628906 0.04474609 3.41628906 0.04474609 4.375 0.0625 C0.80917187 3.88303014 -1.53677728 5.93639959 -6.859375 6.2578125 C-8.01953125 6.23460938 -9.1796875 6.21140625 -10.375 6.1875 C-11.54546875 6.16945313 -12.7159375 6.15140625 -13.921875 6.1328125 C-15.25992187 6.09800781 -15.25992187 6.09800781 -16.625 6.0625 C-17.285 4.7425 -17.945 3.4225 -18.625 2.0625 C-17.965 2.0625 -17.305 2.0625 -16.625 2.0625 C-16.295 2.7225 -15.965 3.3825 -15.625 4.0625 C-14.18760487 4.08962066 -12.75006137 4.10895067 -11.3125 4.125 C-10.51199219 4.13660156 -9.71148437 4.14820313 -8.88671875 4.16015625 C-6.45638666 4.15907855 -6.45638666 4.15907855 -3.625 3.0625 C-4.615 2.4025 -5.605 1.7425 -6.625 1.0625 C-4.21954362 -0.14022819 -2.67503047 -0.03821472 0 0 Z " fill="#BD1619" transform="translate(275.625,58.9375)"/>
<path d="M0 0 C-2.88406243 3.40843742 -4.3708265 4.86591384 -8.8125 5.8125 C-10.3903125 5.9053125 -10.3903125 5.9053125 -12 6 C-12 5.34 -12 4.68 -12 4 C-12.99 3.67 -13.98 3.34 -15 3 C-14.67 2.34 -14.34 1.68 -14 1 C-9.45906828 -0.41904116 -4.7056901 -0.09226843 0 0 Z " fill="#EFEFEF" transform="translate(185,59)"/>
<path d="M0 0 C3.3 0 6.6 0 10 0 C10 0.33 10 0.66 10 1 C7.03 1 4.06 1 1 1 C0.81824219 1.70125 0.63648437 2.4025 0.44921875 3.125 C-1.07999067 8.89678529 -2.80054363 14.44899107 -5 20 C-5.33 20 -5.66 20 -6 20 C-5.979375 19.2575 -5.95875 18.515 -5.9375 17.75 C-5.99328688 15.29537721 -6.3069904 13.33890739 -7 11 C-5.68 10.67 -4.36 10.34 -3 10 C-2.690625 8.72125 -2.38125 7.4425 -2.0625 6.125 C-1.52394756 3.89898325 -1.0263 2.05260001 0 0 Z " fill="#410001" transform="translate(71,34)"/>
<path d="M0 0 C0.66 0.66 1.32 1.32 2 2 C1.360625 2.845625 0.72125 3.69125 0.0625 4.5625 C-2.1966273 7.90728565 -2.67791759 10.97396992 -3 15 C-3.33 14.01 -3.66 13.02 -4 12 C-5.32 12.33 -6.64 12.66 -8 13 C-6.8264515 4.64503532 -6.8264515 4.64503532 -3.4375 2 C-2.633125 1.67 -1.82875 1.34 -1 1 C-0.67 0.67 -0.34 0.34 0 0 Z " fill="#171717" transform="translate(164,46)"/>
<path d="M0 0 C1.98 0 3.96 0 6 0 C6.33 0.99 6.66 1.98 7 3 C6.34 3 5.68 3 5 3 C5.33 4.65 5.66 6.3 6 8 C1.25 7.25 1.25 7.25 -1 5 C-0.625 2.375 -0.625 2.375 0 0 Z " fill="#E8E8E8" transform="translate(188,66)"/>
<path d="M0 0 C1.65 0 3.3 0 5 0 C5.33 0.99 5.66 1.98 6 3 C8.64 3 11.28 3 14 3 C12.03617993 4.50559539 10.21736634 5.89131683 8 7 C5.8359375 6.44140625 5.8359375 6.44140625 3.375 5.5625 C2.55773437 5.27503906 1.74046875 4.98757812 0.8984375 4.69140625 C0.27195313 4.46324219 -0.35453125 4.23507813 -1 4 C-0.67 2.68 -0.34 1.36 0 0 Z " fill="#1B1B1B" transform="translate(146,40)"/>
<path d="M0 0 C0.185625 0.639375 0.37125 1.27875 0.5625 1.9375 C1.036875 2.618125 1.51125 3.29875 2 4 C4.32156597 4.40729228 6.6568787 4.74438677 9 5 C9.33 5.66 9.66 6.32 10 7 C7.00519083 7.8723412 4.36424089 8.10829766 1.25 8.0625 C0.45078125 8.05347656 -0.3484375 8.04445313 -1.171875 8.03515625 C-1.77515625 8.02355469 -2.3784375 8.01195313 -3 8 C-3 4.42424104 -1.91159393 2.94704065 0 0 Z " fill="#E6090C" transform="translate(263,56)"/>
<path d="M0 0 C1.42482835 3.84703653 0.57917819 6.77887101 -0.375 10.6875 C-0.65085938 11.84636719 -0.92671875 13.00523438 -1.2109375 14.19921875 C-2 17 -2 17 -3 18 C-5.01964199 18.07244053 -7.04167124 18.08377188 -9.0625 18.0625 C-10.16722656 18.05347656 -11.27195313 18.04445313 -12.41015625 18.03515625 C-13.69212891 18.01775391 -13.69212891 18.01775391 -15 18 C-14.67 17.34 -14.34 16.68 -14 16 C-11.03 16.33 -8.06 16.66 -5 17 C-4.70996094 15.78763672 -4.70996094 15.78763672 -4.4140625 14.55078125 C-4.15367187 13.48214844 -3.89328125 12.41351563 -3.625 11.3125 C-3.24214844 9.72888672 -3.24214844 9.72888672 -2.8515625 8.11328125 C-2.08094511 5.29593234 -1.14501457 2.68331675 0 0 Z " fill="#4D0102" transform="translate(253,48)"/>
<path d="M0 0 C2.31 0.66 4.62 1.32 7 2 C6.67 3.65 6.34 5.3 6 7 C2.625 7.125 2.625 7.125 -1 7 C-1.66 6.34 -2.32 5.68 -3 5 C-2.67 4.01 -2.34 3.02 -2 2 C-1.34 2 -0.68 2 0 2 C0 1.34 0 0.68 0 0 Z " fill="#FCFCFC" transform="translate(195,67)"/>
<path d="M0 0 C0.33 0 0.66 0 1 0 C0.67 3.3 0.34 6.6 0 10 C1.65 9.67 3.3 9.34 5 9 C5.99 6.03 6.98 3.06 8 0 C8.66 0 9.32 0 10 0 C9.01 3.63 8.02 7.26 7 11 C3.7 11 0.4 11 -3 11 C-2.32829194 7.1936543 -1.27253436 3.64793184 0 0 Z " fill="#B91418" transform="translate(65,54)"/>
<path d="M0 0 C0.66 0.66 1.32 1.32 2 2 C1.79144714 7.05339623 1.03467289 11.69144311 -2.125 15.6875 C-2.74375 16.120625 -3.3625 16.55375 -4 17 C-5 15 -5 15 -4.00390625 11.5234375 C-3.53099953 10.13802064 -3.05018356 8.75528453 -2.5625 7.375 C-2.31951172 6.66859375 -2.07652344 5.9621875 -1.82617188 5.234375 C-1.22412795 3.48726713 -0.61291983 1.74332214 0 0 Z " fill="#0B0A0E" transform="translate(217,50)"/>
<path d="M0 0 C1.2375 -0.04125 2.475 -0.0825 3.75 -0.125 C4.79414063 -0.15980469 4.79414063 -0.15980469 5.859375 -0.1953125 C8 0 8 0 12 2 C7.545 2.495 7.545 2.495 3 3 C2.01 5.97 1.02 8.94 0 12 C-0.33 12 -0.66 12 -1 12 C-1.02698189 10.37509046 -1.04638757 8.75005367 -1.0625 7.125 C-1.07410156 6.22007813 -1.08570313 5.31515625 -1.09765625 4.3828125 C-1 2 -1 2 0 0 Z " fill="#270000" transform="translate(226,32)"/>
<path d="M0 0 C1.10844919 3.32534757 0.84454356 5.62182575 0 9 C2.64 8.34 5.28 7.68 8 7 C8 8.32 8 9.64 8 11 C4.37 11 0.74 11 -3 11 C-2.44894091 7.0507432 -1.61064629 3.65079826 0 0 Z " fill="#600101" transform="translate(81,35)"/>
<path d="M0 0 C1.32 1.32 2.64 2.64 4 4 C3.67 4.33 3.34 4.66 3 5 C3.66 5.33 4.32 5.66 5 6 C4.67 7.32 4.34 8.64 4 10 C4 9.01 4 8.02 4 7 C1.03 7 -1.94 7 -5 7 C-3.35 4.69 -1.7 2.38 0 0 Z " fill="#1B1B1B" transform="translate(135,48)"/>
<path d="M0 0 C0.93423645 3.01031744 1.04449911 3.86650268 0 7 C-0.66 7 -1.32 7 -2 7 C-2.33 7.99 -2.66 8.98 -3 10 C-3.99 10.495 -3.99 10.495 -5 11 C-4.67 9.02 -4.34 7.04 -4 5 C-6.31 4.67 -8.62 4.34 -11 4 C-11 3.67 -11 3.34 -11 3 C-10.28972656 2.86722656 -9.57945312 2.73445313 -8.84765625 2.59765625 C-7.92855469 2.42105469 -7.00945312 2.24445312 -6.0625 2.0625 C-4.68771484 1.80146484 -4.68771484 1.80146484 -3.28515625 1.53515625 C-1.04710156 1.22285012 -1.04710156 1.22285012 0 0 Z " fill="#151313" transform="translate(223,39)"/>
<path d="M0 0 C3.3 0 6.6 0 10 0 C10 0.99 10 1.98 10 3 C5.56923077 5.09230769 5.56923077 5.09230769 2.6875 4.625 C2.130625 4.41875 1.57375 4.2125 1 4 C0.67 2.68 0.34 1.36 0 0 Z " fill="#1C1C1C" transform="translate(169,56)"/>
<path d="M0 0 C2.97 0 5.94 0 9 0 C8.34 2.64 7.68 5.28 7 8 C6.67 8 6.34 8 6 8 C6 6.02 6 4.04 6 2 C4.02 2 2.04 2 0 2 C-0.12375 2.969375 -0.2475 3.93875 -0.375 4.9375 C-0.58125 5.948125 -0.7875 6.95875 -1 8 C-1.99 8.495 -1.99 8.495 -3 9 C-2.01 6.03 -1.02 3.06 0 0 Z " fill="#B71114" transform="translate(249,34)"/>
<path d="M0 0 C1.2380014 3.57644848 0.74926071 6.33694766 0 10 C1.32 10 2.64 10 4 10 C4.66 9.34 5.32 8.68 6 8 C5.67 9.32 5.34 10.64 5 12 C2.03 12 -0.94 12 -4 12 C-3.33501617 7.61110675 -1.81242323 4.0188515 0 0 Z " fill="#C21214" transform="translate(86,53)"/>
<path d="M0 0 C2.475 0.99 2.475 0.99 5 2 C3.125 5.875 3.125 5.875 2 7 C0.33382885 7.04063832 -1.33388095 7.042721 -3 7 C-3.33 6.01 -3.66 5.02 -4 4 C-2.35 3.67 -0.7 3.34 1 3 C0.67 2.01 0.34 1.02 0 0 Z " fill="#131213" transform="translate(46,53)"/>
<path d="M0 0 C0.33 0 0.66 0 1 0 C1.125 6.625 1.125 6.625 0 10 C-1.65 10 -3.3 10 -5 10 C-5.33 8.02 -5.66 6.04 -6 4 C-3.03 4.495 -3.03 4.495 0 5 C0 3.35 0 1.7 0 0 Z " fill="#EDEDED" transform="translate(187,46)"/>
<path d="M0 0 C0.33 0.99 0.66 1.98 1 3 C1.99 3.33 2.98 3.66 4 4 C3.67 5.32 3.34 6.64 3 8 C1.35 8.33 -0.3 8.66 -2 9 C-2.25 3.375 -2.25 3.375 0 0 Z " fill="#ECECEC" transform="translate(203,65)"/>
<path d="M0 0 C0.99 0.33 1.98 0.66 3 1 C2.67 1.99 2.34 2.98 2 4 C2.66 4.66 3.32 5.32 4 6 C3.01 6.99 2.02 7.98 1 9 C0.01 8.67 -0.98 8.34 -2 8 C-1.67 7.34 -1.34 6.68 -1 6 C-1.66 5.01 -2.32 4.02 -3 3 C-2.01 2.01 -1.02 1.02 0 0 Z " fill="#EFEFEF" transform="translate(169,44)"/>
<path d="M0 0 C1.85625 0.061875 1.85625 0.061875 3.75 0.125 C3.42 2.765 3.09 5.405 2.75 8.125 C2.09 7.795 1.43 7.465 0.75 7.125 C0.75 5.805 0.75 4.485 0.75 3.125 C-2.22 2.795 -5.19 2.465 -8.25 2.125 C-4.63863788 0.31931894 -3.705469 -0.12351563 0 0 Z " fill="#150000" transform="translate(80.25,31.875)"/>
<path d="M0 0 C0.33 0 0.66 0 1 0 C1.02689216 1.47906892 1.04634621 2.95827483 1.0625 4.4375 C1.07410156 5.26121094 1.08570313 6.08492187 1.09765625 6.93359375 C1 9 1 9 0 10 C-1.68608966 10.07205511 -3.37500659 10.08386068 -5.0625 10.0625 C-5.98160156 10.05347656 -6.90070313 10.04445313 -7.84765625 10.03515625 C-8.55792969 10.02355469 -9.26820313 10.01195313 -10 10 C-10 9.67 -10 9.34 -10 9 C-7.36 9 -4.72 9 -2 9 C-1.34 6.03 -0.68 3.06 0 0 Z " fill="#440101" transform="translate(294,56)"/>
<path d="M0 0 C0.33 0.66 0.66 1.32 1 2 C1.66 2.33 2.32 2.66 3 3 C2.67 4.98 2.34 6.96 2 9 C0.68 9 -0.64 9 -2 9 C-1.125 2.25 -1.125 2.25 0 0 Z " fill="#F80401" transform="translate(245,54)"/>
<path d="M0 0 C2.64 0 5.28 0 8 0 C6.02 0.99 6.02 0.99 4 2 C6.97 2.495 6.97 2.495 10 3 C10 3.33 10 3.66 10 4 C6.04 4 2.08 4 -2 4 C-1.34 2.68 -0.68 1.36 0 0 Z " fill="#CF1216" transform="translate(266,52)"/>
<path d="M0 0 C0 1.32 0 2.64 0 4 C-2.64 4 -5.28 4 -8 4 C-7.67 3.01 -7.34 2.02 -7 1 C-4.53721199 -0.231394 -2.7204945 -0.07159196 0 0 Z " fill="#460000" transform="translate(274,48)"/>
<path d="M0 0 C0.33 0.99 0.66 1.98 1 3 C2.98 3 4.96 3 7 3 C7.33 2.01 7.66 1.02 8 0 C8.33 0.99 8.66 1.98 9 3 C8.67 3.66 8.34 4.32 8 5 C5.03 5 2.06 5 -1 5 C-0.67 3.35 -0.34 1.7 0 0 Z " fill="#C11718" transform="translate(240,60)"/>
<path d="M0 0 C0.763125 0.0825 1.52625 0.165 2.3125 0.25 C2.3125 1.57 2.3125 2.89 2.3125 4.25 C-0.3275 4.25 -2.9675 4.25 -5.6875 4.25 C-3.34903846 0.31153846 -3.34903846 0.31153846 0 0 Z " fill="#050505" transform="translate(176.6875,47.75)"/>
</svg>
