<?xml version="1.0" encoding="UTF-8"?>
<svg version="1.1" xmlns="http://www.w3.org/2000/svg" width="314" height="99">
<path d="M0 0 C103.62 0 207.24 0 314 0 C314 32.67 314 65.34 314 99 C210.38 99 106.76 99 0 99 C0 66.33 0 33.66 0 0 Z " fill="#010102" transform="translate(0,0)"/>
<path d="M0 0 C29.37 0 58.74 0 89 0 C89 25.08 89 50.16 89 76 C59.63 76 30.26 76 0 76 C0 50.92 0 25.84 0 0 Z " fill="#030305" transform="translate(11,11)"/>
<path d="M0 0 C29.37 0 58.74 0 89 0 C89 25.08 89 50.16 89 76 C59.63 76 30.26 76 0 76 C0 50.92 0 25.84 0 0 Z M9 9 C9 28.14 9 47.28 9 67 C32.43 67 55.86 67 80 67 C80 47.86 80 28.72 80 9 C56.57 9 33.14 9 9 9 Z " fill="#F5F6F6" transform="translate(11,11)"/>
<path d="M0 0 C2.97 0 5.94 0 9 0 C9 3.63 9 7.26 9 11 C12.3 11 15.6 11 19 11 C19 7.37 19 3.74 19 0 C22.63 0 26.26 0 30 0 C30.33 7.92 30.66 15.84 31 24 C31.33 21.03 31.66 18.06 32 15 C33.5625 11.4375 33.5625 11.4375 35 9 C35.66 9 36.32 9 37 9 C37 8.34 37 7.68 37 7 C40.22868746 6.85415936 43.45652365 6.76575894 46.6875 6.6875 C47.59951172 6.64560547 48.51152344 6.60371094 49.45117188 6.56054688 C56.13031568 6.4391079 56.13031568 6.4391079 58.76025391 8.13525391 C60.14453125 9.51953125 60.14453125 9.51953125 62 12 C62 10.68 62 9.36 62 8 C65.3 8 68.6 8 72 8 C72 8.66 72 9.32 72 10 C72.99 9.34 73.98 8.68 75 8 C77.6875 7.875 77.6875 7.875 80 8 C81 11 81 11 80.3125 13.5625 C79 16 79 16 76.9609375 16.74609375 C76.31382812 17.15988281 75.66671875 17.57367188 75 18 C74.33011748 21.04317625 74.33011748 21.04317625 74.3125 24.5 C74.06594724 30.86810552 74.06594724 30.86810552 73 33 C71.37509046 33.02698189 69.75005367 33.04638757 68.125 33.0625 C67.22007812 33.07410156 66.31515625 33.08570313 65.3828125 33.09765625 C63 33 63 33 61 32 C60.375 29.9375 60.375 29.9375 60 28 C59.34 28.99 58.68 29.98 58 31 C54.875 31.1875 54.875 31.1875 52 31 C52 31.66 52 32.32 52 33 C49.87506859 33.02693575 47.75004088 33.04636628 45.625 33.0625 C44.44164062 33.07410156 43.25828125 33.08570313 42.0390625 33.09765625 C39 33 39 33 37 32 C37 31.34 37 30.68 37 30 C35.27523089 29.04497842 35.27523089 29.04497842 33 29 C32.278125 29.845625 31.55625 30.69125 30.8125 31.5625 C28 34 28 34 25.6796875 33.890625 C23.42551226 33.36771288 21.20810979 32.69209411 19 32 C19 27.38 19 22.76 19 18 C15.7 18 12.4 18 9 18 C9 21.96 9 25.92 9 30 C6.03 30 3.06 30 0 30 C0 20.1 0 10.2 0 0 Z " fill="#320101" transform="translate(207,30)"/>
<path d="M0 0 C23.43 0 46.86 0 71 0 C71 19.14 71 38.28 71 58 C70.67 58 70.34 58 70 58 C69.505 50.575 69.505 50.575 69 43 C68.67 43.33 68.34 43.66 68 44 C66.35659133 44.09854655 64.7088539 44.12972411 63.0625 44.125 C62.16660156 44.12757812 61.27070312 44.13015625 60.34765625 44.1328125 C58 44 58 44 56 43 C56 39.04 56 35.08 56 31 C53.36 31 50.72 31 48 31 C48.01160156 31.77085938 48.02320313 32.54171875 48.03515625 33.3359375 C48.04417969 34.33882812 48.05320313 35.34171875 48.0625 36.375 C48.07410156 37.37273438 48.08570313 38.37046875 48.09765625 39.3984375 C48 42 48 42 47 44 C43.7 44 40.4 44 37 44 C37 43.34 37 42.68 37 42 C36.34 42 35.68 42 35 42 C33.84830479 38.54491438 33.96159954 36.03667424 34.0859375 32.3984375 C34.12976562 31.10421875 34.17359375 29.81 34.21875 28.4765625 C34.25742188 27.46770996 34.25742188 27.46770996 34.296875 26.43847656 C34.37496805 24.37584391 34.44199117 22.31305675 34.5078125 20.25 C34.87145769 10.12854231 34.87145769 10.12854231 36 9 C38.01964199 8.92755947 40.04167124 8.91622812 42.0625 8.9375 C43.71958984 8.95103516 43.71958984 8.95103516 45.41015625 8.96484375 C46.26480469 8.97644531 47.11945313 8.98804688 48 9 C48.495 10.485 48.495 10.485 49 12 C52.79547921 11.03223902 52.79547921 11.03223902 56 9 C57.99799572 8.90126184 59.99957158 8.87028201 62 8.875 C63.093125 8.87242188 64.18625 8.86984375 65.3125 8.8671875 C68 9 68 9 69 10 C69.33 7.03 69.66 4.06 70 1 C47.23 1 24.46 1 1 1 C1 19.81 1 38.62 1 58 C0.67 58 0.34 58 0 58 C0 38.86 0 19.72 0 0 Z " fill="#2E1114" transform="translate(20,20)"/>
<path d="M0 0 C2.97 0 5.94 0 9 0 C9 3.63 9 7.26 9 11 C12.3 11 15.6 11 19 11 C19 7.37 19 3.74 19 0 C22.3 0 25.6 0 29 0 C29 9.9 29 19.8 29 30 C25.7 30 22.4 30 19 30 C19 26.04 19 22.08 19 18 C15.7 18 12.4 18 9 18 C9 21.96 9 25.92 9 30 C6.03 30 3.06 30 0 30 C0 20.1 0 10.2 0 0 Z " fill="#C91113" transform="translate(207,30)"/>
<path d="M0 0 C0.99 0.66 1.98 1.32 3 2 C3 1.34 3 0.68 3 0 C5.64 0 8.28 0 11 0 C11.14541967 4.22880411 11.23411527 8.45696413 11.3125 12.6875 C11.35439453 13.88568359 11.39628906 15.08386719 11.43945312 16.31835938 C11.56299872 25.188933 11.56299872 25.188933 8.73046875 29.26953125 C6.28388206 30.82008619 4.83551309 31.70122824 2 32 C1.27941406 32.07863281 0.55882812 32.15726563 -0.18359375 32.23828125 C-4.23451284 32.37167373 -6.46590629 32.30519641 -10.0625 30.25 C-12 28 -12 28 -12 24 C-6.78020872 23.8200072 -2.92737019 24.02905192 2 26 C2 24.02 2 22.04 2 20 C1.67 20.33 1.34 20.66 1 21 C-3.36455188 21.54003583 -6.86685863 21.82152749 -10.5 19.1875 C-13.49797181 14.81545778 -13.77340741 10.13506551 -13 5 C-9.37404675 -0.55224092 -6.14977951 -0.69432994 0 0 Z " fill="#F3F3F3" transform="translate(189,38)"/>
<path d="M0 0 C2.97 0 5.94 0 9 0 C9 3.63 9 7.26 9 11 C12.63 11 16.26 11 20 11 C20 7.37 20 3.74 20 0 C22.97 0 25.94 0 29 0 C29 9.9 29 19.8 29 30 C26.03 30 23.06 30 20 30 C20 26.04 20 22.08 20 18 C16.37 18 12.74 18 9 18 C9 21.96 9 25.92 9 30 C6.03 30 3.06 30 0 30 C0 20.1 0 10.2 0 0 Z " fill="#D41113" transform="translate(58,32)"/>
<path d="M0 0 C3.42120192 1.94538933 4.6322169 3.2444976 6.1875 6.8125 C6.1875 7.4725 6.1875 8.1325 6.1875 8.8125 C3.2175 8.8125 0.2475 8.8125 -2.8125 8.8125 C-3.1425 7.8225 -3.4725 6.8325 -3.8125 5.8125 C-5.7925 5.8125 -7.7725 5.8125 -9.8125 5.8125 C-9.8125 6.8025 -9.8125 7.7925 -9.8125 8.8125 C-8.92046875 9.04324219 -8.0284375 9.27398437 -7.109375 9.51171875 C-5.93890625 9.83785156 -4.7684375 10.16398437 -3.5625 10.5 C-2.40234375 10.81324219 -1.2421875 11.12648438 -0.046875 11.44921875 C3.65331729 13.00884086 5.099942 14.4157081 7.1875 17.8125 C7.26767194 22.30212876 6.68335413 24.21225553 3.8125 27.6875 C-1.00460116 31.58705808 -5.88174108 31.17366801 -11.8125 30.8125 C-16.30587382 29.73799756 -18.32548762 27.68118593 -20.8125 23.8125 C-20.8125 22.4925 -20.8125 21.1725 -20.8125 19.8125 C-17.8425 19.8125 -14.8725 19.8125 -11.8125 19.8125 C-11.1525 21.1325 -10.4925 22.4525 -9.8125 23.8125 C-7.8325 23.8125 -5.8525 23.8125 -3.8125 23.8125 C-3.8125 22.4925 -3.8125 21.1725 -3.8125 19.8125 C-5.05966797 19.43158203 -5.05966797 19.43158203 -6.33203125 19.04296875 C-7.41871094 18.69878906 -8.50539063 18.35460937 -9.625 18 C-11.24341797 17.49533203 -11.24341797 17.49533203 -12.89453125 16.98046875 C-15.68372514 15.86404442 -17.06097616 15.2041156 -18.8125 12.8125 C-19.79810539 10.13568537 -20.1002628 7.65139072 -19.8125 4.8125 C-14.52520003 -2.09036386 -7.85202146 -2.4457116 0 0 Z " fill="#F1F1F1" transform="translate(135.8125,30.1875)"/>
<path d="M0 0 C2.7792738 1.15366082 4.85094533 2.26110158 6.98828125 4.3984375 C6.61328125 7.0234375 6.61328125 7.0234375 5.98828125 9.3984375 C-0.59265001 9.77094304 -0.59265001 9.77094304 -2.69921875 7.8984375 C-3.13234375 7.4034375 -3.56546875 6.9084375 -4.01171875 6.3984375 C-5.33171875 6.3984375 -6.65171875 6.3984375 -8.01171875 6.3984375 C-8.34171875 7.3884375 -8.67171875 8.3784375 -9.01171875 9.3984375 C-8.43164062 9.50800781 -7.8515625 9.61757813 -7.25390625 9.73046875 C-1.56759132 10.88462178 3.56322462 12.05421609 7.86328125 16.2109375 C9.40370958 19.20621482 9.46398668 21.0684995 8.98828125 24.3984375 C7.23559576 27.2546657 5.71124419 28.95190157 2.86328125 30.7109375 C-2.37667474 31.96397045 -7.62784947 31.91666995 -12.88671875 30.7734375 C-15.89808214 28.82490825 -17.29645842 26.51131736 -19.01171875 23.3984375 C-19.01171875 22.4084375 -19.01171875 21.4184375 -19.01171875 20.3984375 C-15.97915879 20.16956505 -13.03608151 20.03053648 -10.01171875 20.3984375 C-8.26171875 22.3984375 -8.26171875 22.3984375 -7.01171875 24.3984375 C-4.38546736 24.73269485 -4.38546736 24.73269485 -2.01171875 24.3984375 C-2.01171875 23.0784375 -2.01171875 21.7584375 -2.01171875 20.3984375 C-2.67558594 20.22828125 -3.33945312 20.058125 -4.0234375 19.8828125 C-13.83500102 17.19000383 -13.83500102 17.19000383 -17.01171875 13.3984375 C-18.09168508 10.6346527 -18.52495261 8.3378678 -18.01171875 5.3984375 C-13.53047428 -0.46165142 -6.90208207 -2.06392357 0 0 Z " fill="#F2F2F2" transform="translate(44.01171875,31.6015625)"/>
<path d="M0 0 C4.11275909 1.54228466 5.55780938 2.33671407 8 6 C8 8.31 8 10.62 8 13 C2.72 13 -2.56 13 -8 13 C-7.34 14.32 -6.68 15.64 -6 17 C-5.11248047 16.87431641 -5.11248047 16.87431641 -4.20703125 16.74609375 C0.09939457 16.19110576 3.75552644 15.76773348 8 17 C4.375 21.875 4.375 21.875 1 23 C-8.02115592 23.99133582 -8.02115592 23.99133582 -12.01953125 21.98828125 C-14.64086167 19.86442959 -15.92996302 18.21011094 -17 15 C-17.67195988 8.16840786 -17.67195988 8.16840786 -15.953125 5.1796875 C-11.20440767 -0.60257419 -7.10731498 -0.62134502 0 0 Z " fill="#F5F5F5" transform="translate(163,38)"/>
<path d="M0 0 C2.76864826 1.13526163 4.80613339 2.26707089 6.9296875 4.390625 C6.9296875 7.030625 6.9296875 9.670625 6.9296875 12.390625 C1.6496875 12.390625 -3.6303125 12.390625 -9.0703125 12.390625 C-8.7403125 13.710625 -8.4103125 15.030625 -8.0703125 16.390625 C-3.4503125 16.390625 1.1696875 16.390625 5.9296875 16.390625 C3.9296875 20.390625 3.9296875 20.390625 1.3046875 21.640625 C-3.70241171 22.75331371 -8.01666052 23.2577225 -12.8828125 21.203125 C-16.60492986 18.1190849 -17.92807302 15.71819347 -18.4453125 10.890625 C-17.95179342 6.2844469 -16.48314552 3.96647721 -13.4453125 0.578125 C-9.18508771 -1.5519874 -4.52649099 -1.33232565 0 0 Z " fill="#DC0D0F" transform="translate(259.0703125,38.609375)"/>
<path d="M0 0 C2.64 0 5.28 0 8 0 C8 0.66 8 1.32 8 2 C8.99 1.34 9.98 0.68 11 0 C13.6875 -0.125 13.6875 -0.125 16 0 C17 3 17 3 16.375 5.125 C15 7 15 7 12.375 7.75 C11.199375 7.87375 11.199375 7.87375 10 8 C8.99740493 11.00778521 8.69685358 13.53820647 8.4375 16.6875 C8.35371094 17.68136719 8.26992188 18.67523438 8.18359375 19.69921875 C8.12300781 20.45847656 8.06242187 21.21773437 8 22 C5.36 22 2.72 22 0 22 C0 14.74 0 7.48 0 0 Z " fill="#BB1917" transform="translate(271,38)"/>
<path d="M0 0 C0.33 0.99 0.66 1.98 1 3 C-2.3 3 -5.6 3 -9 3 C-9 6.63 -9 10.26 -9 14 C-12.3 14 -15.6 14 -19 14 C-19 10.37 -19 6.74 -19 3 C-21.97 3 -24.94 3 -28 3 C-28 12.9 -28 22.8 -28 33 C-25.03 33 -22.06 33 -19 33 C-19.33 33.66 -19.66 34.32 -20 35 C-22.97 35 -25.94 35 -29 35 C-30.49983085 32.0003383 -30.23902055 28.88053039 -30.31640625 25.5859375 C-30.33718735 24.85629791 -30.35796844 24.12665833 -30.37937927 23.37490845 C-30.44481917 21.04170237 -30.50373368 18.70838279 -30.5625 16.375 C-30.60569053 14.79425905 -30.64930499 13.21352961 -30.69335938 11.6328125 C-30.80049481 7.75532496 -30.90177782 3.87772315 -31 0 C-29.04196493 -0.05389087 -27.08351091 -0.09274217 -25.125 -0.125 C-23.48917969 -0.15980469 -23.48917969 -0.15980469 -21.8203125 -0.1953125 C-19 0 -19 0 -17 2 C-16.43479997 4.65537372 -16.26211802 7.29144713 -16 10 C-13.525 10.495 -13.525 10.495 -11 11 C-11.226875 9.7625 -11.45375 8.525 -11.6875 7.25 C-12.00663096 4.48583492 -12.03957303 3.11589246 -11.125 0.4375 C-7.62264939 -1.93173718 -3.99124033 -0.76979897 0 0 Z " fill="#490101" transform="translate(235,27)"/>
<path d="M0 0 C1.093125 0.00257812 2.18625 0.00515625 3.3125 0.0078125 C4.405625 0.00523438 5.49875 0.00265625 6.625 0 C9.3125 0.1328125 9.3125 0.1328125 10.3125 1.1328125 C10.54537008 2.81465198 10.72514166 4.5040541 10.875 6.1953125 C10.95878906 7.11441406 11.04257813 8.03351562 11.12890625 8.98046875 C11.18949219 9.69074219 11.25007813 10.40101562 11.3125 11.1328125 C14.2825 11.6278125 14.2825 11.6278125 17.3125 12.1328125 C17.3125 9.4928125 17.3125 6.8528125 17.3125 4.1328125 C17.9725 3.8028125 18.6325 3.4728125 19.3125 3.1328125 C19.3125 6.7628125 19.3125 10.3928125 19.3125 14.1328125 C15.6825 14.1328125 12.0525 14.1328125 8.3125 14.1328125 C8.3125 10.5028125 8.3125 6.8728125 8.3125 3.1328125 C5.3425 3.1328125 2.3725 3.1328125 -0.6875 3.1328125 C-0.6875 13.0328125 -0.6875 22.9328125 -0.6875 33.1328125 C2.2825 33.1328125 5.2525 33.1328125 8.3125 33.1328125 C8.3125 33.7928125 8.3125 34.4528125 8.3125 35.1328125 C5.0125 35.1328125 1.7125 35.1328125 -1.6875 35.1328125 C-1.6875 34.4728125 -1.6875 33.8128125 -1.6875 33.1328125 C-2.3475 33.1328125 -3.0075 33.1328125 -3.6875 33.1328125 C-4.83919521 29.67772688 -4.72590046 27.16948674 -4.6015625 23.53125 C-4.55773438 22.23703125 -4.51390625 20.9428125 -4.46875 19.609375 C-4.43007813 18.60052246 -4.43007813 18.60052246 -4.390625 17.57128906 C-4.31253195 15.50865641 -4.24550883 13.44586925 -4.1796875 11.3828125 C-3.77743108 0.18667537 -3.77743108 0.18667537 0 0 Z " fill="#370101" transform="translate(58.6875,28.8671875)"/>
<path d="M0 0 C12.59282511 -0.76681614 12.59282511 -0.76681614 16.04296875 1.11328125 C17.375 2.5 17.375 2.5 19 5 C19 3.68 19 2.36 19 1 C19.66 1 20.32 1 21 1 C21 8.26 21 15.52 21 23 C20.67 23 20.34 23 20 23 C20 20.36 20 17.72 20 15 C18.68 15 17.36 15 16 15 C16 16.65 16 18.3 16 20 C15.67 19.34 15.34 18.68 15 18 C10.38 18.33 5.76 18.66 1 19 C0.67 17.35 0.34 15.7 0 14 C5.28 14 10.56 14 16 14 C15.9175 12.741875 15.835 11.48375 15.75 10.1875 C15.70359375 9.47980469 15.6571875 8.77210937 15.609375 8.04296875 C14.75574635 5.18112398 13.57453955 4.46122515 11 3 C8.19735581 2.21736061 8.19735581 2.21736061 5.25 1.8125 C3.77273437 1.57466797 3.77273437 1.57466797 2.265625 1.33203125 C1.51796875 1.22246094 0.7703125 1.11289062 0 1 C0 0.67 0 0.34 0 0 Z " fill="#3E0101" transform="translate(250,37)"/>
<path d="M0 0 C2.0625 0.4375 2.0625 0.4375 4 1 C5.33257403 17.70842825 5.33257403 17.70842825 4 26 C2.35 25.67 0.7 25.34 -1 25 C-1.02886984 21.02084841 -1.04675406 17.04172347 -1.0625 13.0625 C-1.07087891 11.92619141 -1.07925781 10.78988281 -1.08789062 9.61914062 C-1.09111328 8.53955078 -1.09433594 7.45996094 -1.09765625 6.34765625 C-1.10289307 5.34742432 -1.10812988 4.34719238 -1.11352539 3.31665039 C-1 1 -1 1 0 0 Z " fill="#F40404" transform="translate(61,34)"/>
<path d="M0 0 C1.65 0 3.3 0 5 0 C5.02900455 3.6041498 5.04680018 7.20826962 5.0625 10.8125 C5.07087891 11.83666016 5.07925781 12.86082031 5.08789062 13.91601562 C5.09111328 14.89892578 5.09433594 15.88183594 5.09765625 16.89453125 C5.10289307 17.80050049 5.10812988 18.70646973 5.11352539 19.63989258 C5 22 5 22 4 25 C2.68 25 1.36 25 0 25 C0 21.7 0 18.4 0 15 C-0.99 15 -1.98 15 -3 15 C-3 13.35 -3 11.7 -3 10 C-1.68 10 -0.36 10 1 10 C0.67 6.7 0.34 3.4 0 0 Z " fill="#F60304" transform="translate(229,32)"/>
<path d="M0 0 C1.32 0 2.64 0 4 0 C6.55 10.03 6.55 10.03 7 13 C6.67 13.33 6.34 13.66 6 14 C5.76636119 15.84891946 5.58696365 17.70488031 5.4375 19.5625 C5.35371094 20.57441406 5.26992187 21.58632813 5.18359375 22.62890625 C5.12300781 23.41136719 5.06242188 24.19382812 5 25 C3.35 24.67 1.7 24.34 0 24 C0 16.08 0 8.16 0 0 Z " fill="#F70303" transform="translate(209,33)"/>
<path d="M0 0 C1.2065625 0.0309375 1.2065625 0.0309375 2.4375 0.0625 C2.29725781 2.54210136 2.1505815 5.02102402 2 7.5 C1.96068359 8.20705078 1.92136719 8.91410156 1.88085938 9.64257812 C1.55078125 14.94921875 1.55078125 14.94921875 0.4375 16.0625 C-2.0625 16.1875 -2.0625 16.1875 -4.5625 16.0625 C-4.8925 15.7325 -5.2225 15.4025 -5.5625 15.0625 C-6.90997084 14.83174918 -8.26627565 14.65096937 -9.625 14.5 C-10.924375 14.355625 -12.22375 14.21125 -13.5625 14.0625 C-13.5625 13.0725 -13.5625 12.0825 -13.5625 11.0625 C-10.5925 11.0625 -7.6225 11.0625 -4.5625 11.0625 C-4.50191406 10.35222656 -4.44132812 9.64195313 -4.37890625 8.91015625 C-4.29511719 7.99105469 -4.21132812 7.07195313 -4.125 6.125 C-4.04378906 5.20847656 -3.96257812 4.29195312 -3.87890625 3.34765625 C-3.43241544 0.12300042 -3.2948538 0.08036229 0 0 Z " fill="#F40405" transform="translate(82.5625,33.9375)"/>
<path d="M0 0 C1.05068643 3.15205929 1.06963386 5.32609576 1 8.625 C0.96238799 10.41627183 0.95332746 12.20894134 1 14 C2.05978933 15.28612676 2.05978933 15.28612676 4.50390625 15.09765625 C5.51324219 15.08605469 6.52257812 15.07445312 7.5625 15.0625 C8.57441406 15.05347656 9.58632813 15.04445313 10.62890625 15.03515625 C11.41136719 15.02355469 12.19382812 15.01195312 13 15 C13 15.99 13 16.98 13 18 C10.75165504 18.13526139 8.50097486 18.23210804 6.25 18.3125 C4.99703125 18.37050781 3.7440625 18.42851563 2.453125 18.48828125 C-1 18 -1 18 -3.41796875 15.80078125 C-5.81748102 11.55275582 -5.99752273 7.74853796 -5 3 C-2.5 0.875 -2.5 0.875 0 0 Z " fill="#E9090E" transform="translate(248,41)"/>
<path d="M0 0 C2.31 0.33 4.62 0.66 7 1 C6.34 5.95 5.68 10.9 5 16 C3.35 16.33 1.7 16.66 0 17 C0 11.39 0 5.78 0 0 Z " fill="#F10607" transform="translate(273,41)"/>
<path d="M0 0 C0 7.59 0 15.18 0 23 C-0.66 23.33 -1.32 23.66 -2 24 C-2.66 25.32 -3.32 26.64 -4 28 C-4 20.08 -4 12.16 -4 4 C-3.34 3.67 -2.68 3.34 -2 3 C-2.33 2.34 -2.66 1.68 -3 1 C-1 0 -1 0 0 0 Z " fill="#1C1A1C" transform="translate(204,34)"/>
<path d="M0 0 C2.97 0.495 2.97 0.495 6 1 C6.33 1.99 6.66 2.98 7 4 C12.01535052 3.67039784 12.01535052 3.67039784 16 1 C16 1.99 16 2.98 16 4 C16.66 4 17.32 4 18 4 C17.67 5.98 17.34 7.96 17 10 C13.86105313 10 12.91309898 9.58437824 10.25 8.125 C6.5512848 6.19344873 3.04201227 5.01050307 -1 4 C-0.67 2.68 -0.34 1.36 0 0 Z " fill="#141414" transform="translate(36,37)"/>
<path d="M0 0 C0.639375 0.33 1.27875 0.66 1.9375 1 C-0.0625 2 -0.0625 2 -1.75 1.5625 C-6.2426819 0.46968548 -9.77998362 0.39967319 -14 2.375 C-16.72435507 5.842361 -16.58371245 8.26057922 -16.53125 12.5625 C-15.94831848 15.59374392 -15.36480327 16.91808014 -13.0625 19 C-9.64622468 19.70272776 -9.64622468 19.70272776 -5.875 19.75 C-4.60269531 19.80671875 -3.33039063 19.8634375 -2.01953125 19.921875 C-1.04371094 19.94765625 -0.06789063 19.9734375 0.9375 20 C-3.02575336 22.21553807 -6.58616319 22.57068836 -11.0625 22 C-15.22757424 20.2414131 -17.27132468 18.14798495 -19.0625 14 C-19.59882889 8.99426368 -19.16958223 5.99482001 -16.0625 2 C-11.91167887 -2.62976202 -5.4563355 -1.78166057 0 0 Z " fill="#B5191B" transform="translate(260.0625,39)"/>
<path d="M0 0 C1.45792884 -0.05399736 2.91642712 -0.09279177 4.375 -0.125 C5.18710937 -0.14820312 5.99921875 -0.17140625 6.8359375 -0.1953125 C9 0 9 0 11 2 C11.56520003 4.65537372 11.73788198 7.29144713 12 10 C14.97 10.495 14.97 10.495 18 11 C18 8.36 18 5.72 18 3 C18.66 2.67 19.32 2.34 20 2 C20 5.63 20 9.26 20 13 C16.37 13 12.74 13 9 13 C9 9.37 9 5.74 9 2 C6.03 2 3.06 2 0 2 C0 1.34 0 0.68 0 0 Z " fill="#560101" transform="translate(58,30)"/>
<path d="M0 0 C2.64 0 5.28 0 8 0 C8.33 2.31 8.66 4.62 9 7 C10.65 7 12.3 7 14 7 C14 7.33 14 7.66 14 8 C9.38 8 4.76 8 0 8 C0 5.36 0 2.72 0 0 Z " fill="#CE1311" transform="translate(250,42)"/>
<path d="M0 0 C0.33 0 0.66 0 1 0 C1.02886537 4.31248609 1.04675255 8.62494762 1.0625 12.9375 C1.07087891 14.16919922 1.07925781 15.40089844 1.08789062 16.66992188 C1.09272461 18.4246582 1.09272461 18.4246582 1.09765625 20.21484375 C1.10551147 21.84087524 1.10551147 21.84087524 1.11352539 23.49975586 C1 26 1 26 0 27 C-2.33297433 27.04092937 -4.66705225 27.04241723 -7 27 C-7 23.37 -7 19.74 -7 16 C-10.63 16 -14.26 16 -18 16 C-18 15.67 -18 15.34 -18 15 C-13.71 15 -9.42 15 -5 15 C-5 18.3 -5 21.6 -5 25 C-3.68 25 -2.36 25 -1 25 C-0.67 16.75 -0.34 8.5 0 0 Z " fill="#D80F0F" transform="translate(234,32)"/>
<path d="M0 0 C5.28 0 10.56 0 16 0 C16 1.98 16 3.96 16 6 C15.67 5.34 15.34 4.68 15 4 C10.38 4.33 5.76 4.66 1 5 C0.67 3.35 0.34 1.7 0 0 Z " fill="#6D0303" transform="translate(250,51)"/>
<path d="M0 0 C0.33 0 0.66 0 1 0 C0.67 2.31 0.34 4.62 0 7 C-1.66611905 7.042721 -3.33382885 7.04063832 -5 7 C-5.33 6.67 -5.66 6.34 -6 6 C-7.34747084 5.76924918 -8.70377565 5.58846937 -10.0625 5.4375 C-11.361875 5.293125 -12.66125 5.14875 -14 5 C-14.33 5.66 -14.66 6.32 -15 7 C-14.67 5.35 -14.34 3.7 -14 2 C-11.01049637 1.12435592 -8.42036138 0.91780862 -5.3125 1 C-3.87549262 1.03763031 -2.43674355 1.04662859 -1 1 C-0.67 0.67 -0.34 0.34 0 0 Z " fill="#101010" transform="translate(191,57)"/>
<path d="M0 0 C0.33 0 0.66 0 1 0 C1 1.98 1 3.96 1 6 C0.01 6.33 -0.98 6.66 -2 7 C-1.34 7.66 -0.68 8.32 0 9 C-0.59167969 8.98839844 -1.18335938 8.97679687 -1.79296875 8.96484375 C-5.30122679 8.92478208 -8.49301061 8.89212992 -11.9375 9.625 C-12.618125 9.74875 -13.29875 9.8725 -14 10 C-14.66 9.34 -15.32 8.68 -16 8 C-16 7.01 -16 6.02 -16 5 C-10.72 5 -5.44 5 0 5 C0 3.35 0 1.7 0 0 Z " fill="#383838" transform="translate(171,46)"/>
<path d="M0 0 C4.70588235 0.70588235 4.70588235 0.70588235 6 2 C6.1875 4.9375 6.1875 4.9375 6 8 C5.34 8.66 4.68 9.32 4 10 C1.375 9.625 1.375 9.625 -1 9 C-1.09765625 2.84765625 -1.09765625 2.84765625 -1 1 C-0.67 0.67 -0.34 0.34 0 0 Z " fill="#191919" transform="translate(186,44)"/>
<path d="M0 0 C2.97 0.99 5.94 1.98 9 3 C8.67 4.65 8.34 6.3 8 8 C5.1875 8.3125 5.1875 8.3125 2 8 C0.0625 5.6875 0.0625 5.6875 -1 3 C-0.67 2.01 -0.34 1.02 0 0 Z " fill="#101010" transform="translate(124,47)"/>
<path d="M0 0 C3 0.3125 3 0.3125 6 1 C6.33 1.66 6.66 2.32 7 3 C10.02934491 3.65772428 10.02934491 3.65772428 13 4 C12.34 5.32 11.68 6.64 11 8 C7.37 7.01 3.74 6.02 0 5 C-0.33 3.68 -0.66 2.36 -1 1 C-0.67 0.67 -0.34 0.34 0 0 Z " fill="#212121" transform="translate(126,35)"/>
<path d="M0 0 C1.4540625 0.0309375 1.4540625 0.0309375 2.9375 0.0625 C2.9375 0.3925 2.9375 0.7225 2.9375 1.0625 C1.2875 1.0625 -0.3625 1.0625 -2.0625 1.0625 C-1.7325 4.3625 -1.4025 7.6625 -1.0625 11.0625 C-4.33131973 11.87970493 -6.53249069 12.17323543 -9.8125 12.125 C-10.61171875 12.11597656 -11.4109375 12.10695313 -12.234375 12.09765625 C-12.83765625 12.08605469 -13.4409375 12.07445312 -14.0625 12.0625 C-14.3925 11.4025 -14.7225 10.7425 -15.0625 10.0625 C-11.7625 9.7325 -8.4625 9.4025 -5.0625 9.0625 C-4.918125 7.763125 -4.77375 6.46375 -4.625 5.125 C-4.06477273 0.08295455 -4.06477273 0.08295455 0 0 Z " fill="#D80E0E" transform="translate(231.0625,30.9375)"/>
<path d="M0 0 C1.65 0 3.3 0 5 0 C4.35417969 0.35835937 3.70835937 0.71671875 3.04296875 1.0859375 C0.70129943 2.90064237 0.70129943 2.90064237 0.42578125 6.1015625 C0.38839844 7.26429687 0.35101563 8.42703125 0.3125 9.625 C0.06888634 15.93111366 0.06888634 15.93111366 -1 17 C-4.4375 17.1875 -4.4375 17.1875 -8 17 C-8.66 16.34 -9.32 15.68 -10 15 C-7.36 15 -4.72 15 -2 15 C-2.02320313 14.25234375 -2.04640625 13.5046875 -2.0703125 12.734375 C-2.08835937 11.74953125 -2.10640625 10.7646875 -2.125 9.75 C-2.14820313 8.77546875 -2.17140625 7.8009375 -2.1953125 6.796875 C-1.99862781 3.9803502 -1.44568916 2.39050964 0 0 Z " fill="#640506" transform="translate(281,45)"/>
<path d="M0 0 C2.64 0 5.28 0 8 0 C8 3.3 8 6.6 8 10 C7.67 10 7.34 10 7 10 C7 7.36 7 4.72 7 2 C5.68 2 4.36 2 3 2 C2.7834375 3.36125 2.7834375 3.36125 2.5625 4.75 C2.13590527 7.21476956 1.64925779 9.58847107 1 12 C0.34 11.67 -0.32 11.34 -1 11 C-0.67 7.37 -0.34 3.74 0 0 Z " fill="#220000" transform="translate(68,51)"/>
<path d="M0 0 C0.33 0 0.66 0 1 0 C1.04898438 0.92683594 1.09796875 1.85367187 1.1484375 2.80859375 C1.22320312 4.00613281 1.29796875 5.20367187 1.375 6.4375 C1.44460937 7.63246094 1.51421875 8.82742187 1.5859375 10.05859375 C1.72257813 11.02925781 1.85921875 11.99992187 2 13 C2.66 13.33 3.32 13.66 4 14 C3.67 14.33 3.34 14.66 3 15 C2.60333773 17.18019479 2.25684763 19.3696463 1.9375 21.5625 C1.67259766 23.35880859 1.67259766 23.35880859 1.40234375 25.19140625 C1.26957031 26.11824219 1.13679687 27.04507813 1 28 C0.67 28 0.34 28 0 28 C0 18.76 0 9.52 0 0 Z " fill="#170000" transform="translate(237,30)"/>
<path d="M0 0 C0.33 0.99 0.66 1.98 1 3 C-2.63 3 -6.26 3 -10 3 C-10 5.64 -10 8.28 -10 11 C-10.33 11 -10.66 11 -11 11 C-12.30364059 3.88923315 -12.30364059 3.88923315 -11.125 0.4375 C-7.62264939 -1.93173718 -3.99124033 -0.76979897 0 0 Z " fill="#2A0002" transform="translate(235,27)"/>
<path d="M0 0 C3.3 0 6.6 0 10 0 C10 3.96 10 7.92 10 12 C9.67 12 9.34 12 9 12 C8.67 9.03 8.34 6.06 8 3 C5.69 2.67 3.38 2.34 1 2 C1 5.3 1 8.6 1 12 C0.67 12 0.34 12 0 12 C0 8.04 0 4.08 0 0 Z " fill="#4E0000" transform="translate(216,48)"/>
<path d="M0 0 C0.33 0.99 0.66 1.98 1 3 C1.66 3 2.32 3 3 3 C2.67 4.98 2.34 6.96 2 9 C-1.69418201 9 -3.77836178 7.71820705 -7 6 C-6.401875 5.566875 -5.80375 5.13375 -5.1875 4.6875 C-3.29216913 3.22538761 -1.6471407 1.72949773 0 0 Z " fill="#1C1919" transform="translate(51,38)"/>
<path d="M0 0 C1.71816805 5.15450416 1.30050694 9.11142275 -1 14 C-3.42115191 11.57884809 -3.60948898 10.35839475 -4 7 C-3.75 4.3125 -3.75 4.3125 -3 2 C-2.01 1.34 -1.02 0.68 0 0 Z " fill="#F30504" transform="translate(248,41)"/>
<path d="M0 0 C5.28 0 10.56 0 16 0 C16 0.66 16 1.32 16 2 C13.36 2.66 10.72 3.32 8 4 C8 3.34 8 2.68 8 2 C5.36 2 2.72 2 0 2 C0 1.34 0 0.68 0 0 Z " fill="#360101" transform="translate(271,36)"/>
<path d="M0 0 C0.99 0.66 1.98 1.32 3 2 C3 4.64 3 7.28 3 10 C-2.28 10 -7.56 10 -13 10 C-13 9.67 -13 9.34 -13 9 C-8.38 9 -3.76 9 1 9 C0.67 6.03 0.34 3.06 0 0 Z " fill="#B71719" transform="translate(263,41)"/>
<path d="M0 0 C0.33 1.32 0.66 2.64 1 4 C-1.64 4 -4.28 4 -7 4 C-7 2.68 -7 1.36 -7 0 C-4.3333581 -1.33332095 -2.83319697 -0.67102033 0 0 Z " fill="#680101" transform="translate(257,44)"/>
<path d="M0 0 C1.67542976 0.28604898 3.34385343 0.61781233 5 1 C5.33 2.32 5.66 3.64 6 5 C3.36 5 0.72 5 -2 5 C-1.125 1.125 -1.125 1.125 0 0 Z " fill="#292929" transform="translate(157,43)"/>
<path d="M0 0 C0.99 0 1.98 0 3 0 C2.6875 1.875 2.6875 1.875 2 4 C1.01 4.66 0.02 5.32 -1 6 C-1.80092254 8.64691668 -1.80092254 8.64691668 -2.1875 11.625 C-2.34605469 12.62789062 -2.50460937 13.63078125 -2.66796875 14.6640625 C-2.77753906 15.43492188 -2.88710938 16.20578125 -3 17 C-3.33 17 -3.66 17 -4 17 C-4.05429959 15.25034642 -4.09292823 13.50020213 -4.125 11.75 C-4.15980469 10.28820312 -4.15980469 10.28820312 -4.1953125 8.796875 C-3.99862781 5.9803502 -3.44568916 4.39050964 -2 2 C-1.34 2 -0.68 2 0 2 C0 1.34 0 0.68 0 0 Z " fill="#D80E13" transform="translate(282,40)"/>
<path d="M0 0 C2.475 0.495 2.475 0.495 5 1 C5.33 2.98 5.66 4.96 6 7 C4.35 7 2.7 7 1 7 C0.67 4.69 0.34 2.38 0 0 Z " fill="#EF0606" transform="translate(258,42)"/>
<path d="M0 0 C1.69141656 0.08963062 3.37959602 0.24577676 5.0625 0.4375 C6.44115234 0.59025391 6.44115234 0.59025391 7.84765625 0.74609375 C8.55792969 0.82988281 9.26820313 0.91367187 10 1 C10 1.33 10 1.66 10 2 C8.35 2.33 6.7 2.66 5 3 C5 3.33 5 3.66 5 4 C3.02 4 1.04 4 -1 4 C-1.33 4.66 -1.66 5.32 -2 6 C-1.125 1.125 -1.125 1.125 0 0 Z " fill="#434343" transform="translate(178,58)"/>
<path d="M0 0 C1.2065625 0.0309375 1.2065625 0.0309375 2.4375 0.0625 C3.4375 3.0625 3.4375 3.0625 2.5 5.25 C1.9740625 6.1471875 1.9740625 6.1471875 1.4375 7.0625 C0.1175 6.7325 -1.2025 6.4025 -2.5625 6.0625 C-1.9025 5.7325 -1.2425 5.4025 -0.5625 5.0625 C-0.2325 4.0725 0.0975 3.0825 0.4375 2.0625 C-0.8825 1.7325 -2.2025 1.4025 -3.5625 1.0625 C-2.5625 0.0625 -2.5625 0.0625 0 0 Z " fill="#AC191C" transform="translate(284.5625,37.9375)"/>
<path d="M0 0 C0.79921875 0.01804688 1.5984375 0.03609375 2.421875 0.0546875 C3.02515625 0.07789063 3.6284375 0.10109375 4.25 0.125 C3.59 1.445 2.93 2.765 2.25 4.125 C1.59 4.125 0.93 4.125 0.25 4.125 C0.25 3.135 0.25 2.145 0.25 1.125 C-4.205 1.62 -4.205 1.62 -8.75 2.125 C-5.00631258 0.25315629 -3.9099209 -0.11499767 0 0 Z " fill="#BA1A1B" transform="translate(260.75,54.875)"/>
<path d="M0 0 C2.31 0 4.62 0 7 0 C7 0.66 7 1.32 7 2 C6.34 2 5.68 2 5 2 C5 2.66 5 3.32 5 4 C3.35 4 1.7 4 0 4 C0 2.68 0 1.36 0 0 Z " fill="#4D0000" transform="translate(251,52)"/>
<path d="M0 0 C1.2065625 0.0309375 1.2065625 0.0309375 2.4375 0.0625 C1.79296875 0.44019531 1.1484375 0.81789062 0.484375 1.20703125 C-1.80279762 2.92309908 -1.80279762 2.92309908 -2.171875 5.76171875 C-2.21828125 6.74785156 -2.2646875 7.73398437 -2.3125 8.75 C-2.36921875 9.74386719 -2.4259375 10.73773438 -2.484375 11.76171875 C-2.51015625 12.52097656 -2.5359375 13.28023437 -2.5625 14.0625 C-2.8925 14.0625 -3.2225 14.0625 -3.5625 14.0625 C-3.58935938 11.91673363 -3.60883088 9.77087355 -3.625 7.625 C-3.63660156 6.43003906 -3.64820313 5.23507813 -3.66015625 4.00390625 C-3.53008299 0.08609959 -3.53008299 0.08609959 0 0 Z " fill="#4C0000" transform="translate(283.5625,44.9375)"/>
<path d="M0 0 C2.31 0 4.62 0 7 0 C6.360625 0.309375 5.72125 0.61875 5.0625 0.9375 C3.06389179 1.8345163 3.06389179 1.8345163 2 3 C1.95919217 4.99958364 1.95745644 7.00045254 2 9 C1.01 9.495 1.01 9.495 0 10 C0 6.7 0 3.4 0 0 Z " fill="#180000" transform="translate(217,50)"/>
<path d="M0 0 C2.31 0 4.62 0 7 0 C6.34 1.32 5.68 2.64 5 4 C2.525 3.01 2.525 3.01 0 2 C0 1.34 0 0.68 0 0 Z " fill="#131313" transform="translate(132,39)"/>
<path d="M0 0 C0.33 0 0.66 0 1 0 C1 2.97 1 5.94 1 9 C0.01 9.33 -0.98 9.66 -2 10 C-1.34 6.7 -0.68 3.4 0 0 Z " fill="#0C0808" transform="translate(54,40)"/>
</svg>
